<svg xmlns="http://www.w3.org/2000/svg" width="120" height="63" viewBox="0 0 120 63">
    <g fill="none" fill-rule="evenodd">
        <path fill="#666" d="M37.805 60.234v-9.423c0-.136.05-.236.165-.334a.764.764 0 0 1 .512-.165h4.09c.214 0 .377.052.51.165.118.1.168.2.168.334v9.423c0 .14-.048.238-.168.337-.133.113-.294.165-.51.165h-4.09c-.216 0-.379-.054-.514-.17a.397.397 0 0 1-.163-.332m6.97-11.371c-.602-.507-1.343-.764-2.202-.764h-4.091c-.86 0-1.602.258-2.203.764-.623.522-.939 1.178-.939 1.948v9.423c0 .77.316 1.427.94 1.952.6.506 1.34.762 2.202.762h4.09c.871 0 1.591-.25 2.204-.763.623-.525.94-1.182.94-1.95V50.81c0-.767-.316-1.423-.94-1.948M78.688 56.516h4.769a.77.77 0 0 1 .51.165c.117.1.166.2.166.337v3.216c0 .137-.05.237-.17.337-.131.113-.293.165-.506.165l-4.769.001v-4.22zm5.308-5.705V53.8c0 .137-.05.238-.17.339-.129.11-.294.164-.506.164l-4.632.001v-3.991h4.632c.211 0 .374.053.512.167.115.098.164.197.164.332zm1.716 4.57c.137-.123.26-.256.368-.399a1.94 1.94 0 0 0 .382-1.183v-2.988c0-.77-.318-1.426-.94-1.948-.6-.506-1.342-.764-2.202-.764l-6.542.001a.557.557 0 0 0-.557.557l.002 13.732c0 .308.25.558.555.558h6.678c.873 0 1.593-.249 2.199-.762.625-.522.942-1.178.942-1.95v-3.217c0-.45-.146-.858-.436-1.212a2.704 2.704 0 0 0-.449-.426zM94.257 60.234v-9.423c0-.137.048-.236.166-.334a.757.757 0 0 1 .51-.165h4.09c.212 0 .376.053.511.165a.406.406 0 0 1 .165.334v9.423c0 .14-.047.236-.17.338-.13.112-.291.164-.507.164h-4.09c-.216 0-.38-.054-.516-.17a.398.398 0 0 1-.16-.332m6.97-11.371c-.6-.506-1.341-.764-2.204-.764h-4.09c-.862 0-1.603.258-2.201.764-.625.522-.941 1.178-.941 1.948v9.423c0 .77.316 1.427.94 1.952.6.506 1.34.762 2.202.762h4.09c.872 0 1.593-.25 2.204-.763.624-.523.94-1.18.94-1.95V50.81c0-.768-.316-1.425-.94-1.948M70.326 48.099H69.27a.706.706 0 0 0-.703.707v13.436c0 .39.315.706.703.706h1.057a.705.705 0 0 0 .703-.706V48.806a.706.706 0 0 0-.703-.707M3.056 50.276h6.417c.505 0 .845-.346.845-.86l-.003-.771a.552.552 0 0 0-.547-.546h-6.85c-1.87 0-2.741.948-2.741 2.984v8.712c0 2.724 1.763 3.131 2.814 3.131H9.77a.55.55 0 0 0 .548-.55v-.771c0-.51-.334-.839-.85-.839H3.273c-.65 0-.79-.144-.79-.81V56.61h5.584c.494 0 .827-.345.827-.856l-.003-.791a.547.547 0 0 0-.543-.55l-5.864-.011V50.94c0-.665 0-.665.572-.665M30.129 48.9l-.012-.109c-.002-.016-.003-.03-.01-.066-.09-.377-.399-.612-.808-.612h-1.35a.557.557 0 0 0-.47.27l-4.632 7.841-4.637-7.844a.544.544 0 0 0-.47-.267h-1.35c-.409 0-.713.23-.815.618a.525.525 0 0 0-.016.14l.001.019s-.006.062-.006.08l.005 4.793.002 8.617a.545.545 0 0 0 .544.546l1.23-.002c.3 0 .544-.246.544-.548l-.003-10.224 3.968 6.6a.545.545 0 0 0 .466.265h1.068c.19 0 .369-.102.467-.265l3.95-6.614.02 10.242c0 .3.245.546.544.546h1.23c.144 0 .28-.055.389-.16a.565.565 0 0 0 .156-.386l-.002-13.417c0-.021 0-.044-.003-.062M62.7 48.11a.5.5 0 0 0-.116-.011H51.753a.656.656 0 0 0-.078.005l-.077.011c-.334.051-.69.302-.69.855v.787a.56.56 0 0 0 .554.555l4.445-.003.003 12.08c0 .309.248.559.553.559h1.355a.558.558 0 0 0 .555-.558l-.002-12.078 4.304-.001.156-.003a.553.553 0 0 0 .544-.557v-.781c0-.449-.254-.77-.674-.86M119.156 48.113a.475.475 0 0 0-.121-.014h-10.832a.692.692 0 0 0-.076.005l-.078.011c-.335.052-.693.302-.693.855l.002.785c0 .307.249.557.555.557l4.443-.003.003 12.08c0 .308.249.559.554.559h1.355a.536.536 0 0 0 .386-.16.541.541 0 0 0 .167-.398V50.312h4.304l.156-.004a.552.552 0 0 0 .542-.557v-.78c0-.45-.253-.771-.667-.858"/>
        <path fill="#39B9CF" d="M41.394 2.76c0-.236-.164-.33-.367-.212L21.374 14.272c-.201.118-.534.315-.736.432L.425 26.412c-.203.12-.203.31.002.428l20.208 11.466a.817.817 0 0 0 .742-.006l19.649-11.578a.833.833 0 0 0 .368-.647V2.76z"/>
        <path fill="#E287B4" d="M20.551 14.755L.425 26.412c-.203.12-.203.31.001.428l20.21 11.466s.064.046.212.074c.068.013.16.013.16.013V14.489l-.457.266z"/>
        <path fill="#FEFEFE" d="M20.851 11.57c.207.117.207.306.003.423L.641 23.703c-.201.12-.37.022-.37-.213V.32c0-.237.169-.335.374-.218L20.851 11.57z"/>
        <path fill="#666" d="M66.708 9.868V8.59a.519.519 0 0 0-.52-.517H60.13c.349-.982.595-1.84.73-2.537l.356-1.128a.516.516 0 0 0-.494-.675H58.78a.515.515 0 0 0-.51.428c-.786 4.448-2.686 7.907-5.645 10.281a.511.511 0 0 0-.195.403v1.405a.518.518 0 0 0 .814.424c2.41-1.662 4.216-3.48 5.381-5.41v22.091c0 .286.233.518.52.518h1.943a.519.519 0 0 0 .518-.518V10.385h4.584a.518.518 0 0 0 .519-.517"/>
        <path fill="#666" d="M81.009 8.202h-8.457c.441-1.144.802-2.44 1.071-3.855a.517.517 0 0 0-.51-.613H71.29a.518.518 0 0 0-.51.424c-.785 4.286-2.689 7.75-5.658 10.295a.514.514 0 0 0-.182.394v1.404a.514.514 0 0 0 .518.517c.11 0 .215-.034.305-.097 2.757-1.988 4.684-4.016 5.728-6.03h2.56v19.303c.027.404-.048.703-.222.888-.216.23-.62.347-1.203.347h-1.7a.52.52 0 0 0-.52.518v1.405c0 .284.233.516.52.516h2.186c2.528 0 3.92-1.453 3.92-4.092V10.64h3.976c.286 0 .52-.232.52-.517V8.719a.52.52 0 0 0-.52-.517M109.857 25.59c0 1.296-.543 1.874-1.76 1.874h-6.92v-2.162h8.68v.288zm-8.68-2.54h8.68v-3.247h-8.68v3.247zm11.233 2.668v-7.744a.425.425 0 0 0-.426-.424H99.05a.425.425 0 0 0-.426.424v11.318c0 .234.191.424.426.424h9.275c.089.003.177.004.263.004 1.271 0 2.244-.337 2.891-1.003.66-.68.974-1.69.93-2.999z"/>
        <path fill="#666" d="M109.252 13.02h6.954v-2.173h-6.954v2.173zm0-4.306h6.954V6.54h-6.954v2.173zm9.503-4.367h-11.751c-.124 0-.225.1-.225.224V14.99c0 .123.101.224.225.224h9.177v14.72c.032.535-.072.934-.309 1.184-.257.272-.705.41-1.331.41h-2.915a.426.426 0 0 0-.427.424v1.404c0 .234.192.425.427.425h3.28c1.422 0 2.49-.359 3.174-1.065.636-.657.938-1.603.896-2.806V15.147a.1.1 0 0 0 .003-.026V4.57c0-.123-.1-.224-.224-.224zM95.255 8.714h6.935V6.54h-6.935v2.173zm0 4.275h6.935v-2.142h-6.935v2.142zm9.438 1.97V4.571c0-.123-.1-.224-.224-.224H92.718c-.124 0-.225.1-.225.224v28.165c0 .233.191.423.426.423h1.822c.235 0 .426-.19.426-.423V15.183h9.302c.124 0 .224-.1.224-.224z"/>
    </g>
</svg>