<?xml version="1.0" encoding="UTF-8"?>
<svg width="15px" height="14px" viewBox="0 0 15 14" version="1.1" xmlns="http://www.w3.org/2000/svg" xmlns:xlink="http://www.w3.org/1999/xlink">
    <!-- Generator: Sketch 50.2 (55047) - http://www.bohemiancoding.com/sketch -->
    <title>编辑任务on</title>
    <desc>Created with Sketch.</desc>
    <defs></defs>
    <g id="part1" stroke="none" stroke-width="1" fill="none" fill-rule="evenodd">
        <g id="1_5任务列表" transform="translate(-1126.000000, -676.000000)" fill="#3D80FF">
            <g id="Group-20-+-语料不足-Mask" transform="translate(20.000000, 134.000000)">
                <g id="Group" transform="translate(0.000000, 280.000000)">
                    <g id="Group-4" transform="translate(1084.000000, 38.000000)">
                        <g id="Group-3" transform="translate(21.000000, 224.000000)">
                            <path d="M10.7781746,2.65816951 L4.77817459,2.65816951 L4.77817459,0.778174593 C4.77817459,0.225889843 5.22588984,-0.221825407 5.77817459,-0.221825407 L9.77817459,-0.221825407 C10.3304593,-0.221825407 10.7781746,0.225889843 10.7781746,0.778174593 L10.7781746,2.65816951 Z M10.7781746,3.61816781 L10.7781746,11.9138368 C10.7781746,12.136953 10.7035587,12.3536607 10.5661984,12.5294816 L8.17218652,15.5938114 C8.00218092,15.8114182 7.68795901,15.8500066 7.47035223,15.680001 C7.43821489,15.6548936 7.40927001,15.6259488 7.38416267,15.5938114 L4.99015075,12.5294816 C4.85279044,12.3536607 4.77817459,12.136953 4.77817459,11.9138368 L4.77817459,3.61816781 L10.7781746,3.61816781 Z" id="编辑任务on" transform="translate(7.778175, 7.778175) rotate(-315.000000) translate(-7.778175, -7.778175) "></path>
                        </g>
                    </g>
                </g>
            </g>
        </g>
    </g>
</svg>