<?xml version="1.0" encoding="UTF-8"?>
<svg width="14px" height="14px" viewBox="0 0 14 14" version="1.1" xmlns="http://www.w3.org/2000/svg" xmlns:xlink="http://www.w3.org/1999/xlink">
    <!-- Generator: Sketch 50.2 (55047) - http://www.bohemiancoding.com/sketch -->
    <title>编辑任务off</title>
    <desc>Created with Sketch.</desc>
    <defs></defs>
    <g id="part1" stroke="none" stroke-width="1" fill="none" fill-rule="evenodd">
        <g id="1_5任务列表" transform="translate(-1127.000000, -676.000000)" fill="#BABABA">
            <g id="Group-20-+-语料不足-Mask" transform="translate(20.000000, 134.000000)">
                <g id="Group" transform="translate(0.000000, 280.000000)">
                    <g id="Group-4" transform="translate(1084.000000, 38.000000)">
                        <g id="Group-3" transform="translate(21.000000, 224.000000)">
                            <path d="M11.0111166,2.6567596 L5.01111657,2.6567596 L5.01111657,0.778174593 C5.01111657,0.225889843 5.45883182,-0.221825407 6.01111657,-0.221825407 L10.0111166,-0.221825407 C10.5634013,-0.221825407 11.0111166,0.225889843 11.0111166,0.778174593 L11.0111166,2.6567596 Z M11.0111166,3.61628793 L11.0111166,11.9075943 C11.0111166,12.1307919 10.9364463,12.3475739 10.7989941,12.5234263 L8.40505535,15.5861624 C8.23499806,15.8037288 7.92076699,15.8422425 7.70320061,15.6721852 C7.67113186,15.6471192 7.64224381,15.6182311 7.61717779,15.5861624 L5.22323901,12.5234263 C5.0857868,12.3475739 5.01111657,12.1307919 5.01111657,11.9075943 L5.01111657,3.61628793 L11.0111166,3.61628793 Z" id="编辑任务off" transform="translate(8.011117, 7.778175) rotate(-315.000000) translate(-8.011117, -7.778175) "></path>
                        </g>
                    </g>
                </g>
            </g>
        </g>
    </g>
</svg>