<?xml version="1.0" encoding="UTF-8"?>
<svg width="17px" height="15px" viewBox="0 0 17 15" version="1.1" xmlns="http://www.w3.org/2000/svg" xmlns:xlink="http://www.w3.org/1999/xlink">
    <!-- Generator: Sketch 49.3 (51167) - http://www.bohemiancoding.com/sketch -->
    <title>多轮任务off</title>
    <desc>Created with Sketch.</desc>
    <defs></defs>
    <g id="用戶管理" stroke="none" stroke-width="1" fill="none" fill-rule="evenodd">
        <g id="用戶管理--編輯" transform="translate(-15.000000, -582.000000)" fill="#BABABA">
            <g id="sideBar" transform="translate(0.000000, 50.000000)">
                <g id="Group">
                    <g id="menu_l1" transform="translate(0.000000, 520.000000)">
                        <g id="优化" transform="translate(15.000000, 12.000000)">
                            <g id="多轮任务off" transform="translate(0.000000, 0.500000)">
                                <path d="M1,0 L12.5,0 C13.0522847,-1.08250786e-15 13.5,0.44771525 13.5,1 L13.5,10 C13.5,10.2761424 13.2761424,10.5 13,10.5 L3.82842712,10.5 C3.29799415,10.5 2.78928632,10.7107137 2.41421356,11.0857864 L0.853553391,12.6464466 C0.658291245,12.8417088 0.341708755,12.8417088 0.146446609,12.6464466 C0.0526784202,12.5526784 3.37393882e-15,12.4255015 2.88657986e-15,12.2928932 L0,1 C-6.76353751e-17,0.44771525 0.44771525,-9.5692398e-18 1,-1.11022302e-16 Z" id="Rectangle-7"></path>
                                <path d="M16,4 C16.5522847,4 17,4.44771525 17,5 L17,13 C17,13.5522847 16.5522847,14 16,14 L4,14 C3.44771525,14 3,13.5522847 3,13 L3,13 C3,12.4477153 3.44771525,12 4,12 L14,12 C14.5522847,12 15,11.5522847 15,11 L15,5 C15,4.44771525 15.4477153,4 16,4 Z" id="Combined-Shape"></path>
                            </g>
                        </g>
                    </g>
                </g>
            </g>
        </g>
    </g>
</svg>