<?xml version="1.0" encoding="UTF-8"?>
<svg width="16px" height="16px" viewBox="0 0 16 16" version="1.1" xmlns="http://www.w3.org/2000/svg" xmlns:xlink="http://www.w3.org/1999/xlink">
    <!-- Generator: Sketch 49.3 (51167) - http://www.bohemiancoding.com/sketch -->
    <title>标准问题off</title>
    <desc>Created with Sketch.</desc>
    <defs></defs>
    <g id="用戶管理" stroke="none" stroke-width="1" fill="none" fill-rule="evenodd">
        <g id="用戶管理--編輯" transform="translate(-15.000000, -262.000000)" fill="#BABABA">
            <g id="sideBar" transform="translate(0.000000, 50.000000)">
                <g id="Group">
                    <g id="menu_l1" transform="translate(0.000000, 200.000000)">
                        <g id="优化" transform="translate(15.000000, 12.000000)">
                            <g id="标准问题off" transform="translate(0.000000, 0.500000)">
                                <path d="M9.95336788,13 C8.83395449,14.3333333 8.18283186,15 8,15 C7.81716814,15 7.13841166,14.3333333 5.96373057,13 L1.12746114,13 C0.504781546,13 0,12.5164056 0,11.9198616 L0,1.08013842 C0,0.483594442 0.504781546,0 1.12746114,0 L14.7896373,0 C15.4123169,0 15.9170984,0.483594442 15.9170984,1.08013842 L16,11.9198616 C16,12.5164056 15.4952185,13 14.8725389,13 L9.95336788,13 Z M9.86440678,10.1137725 L10.5935091,10.6317464 C10.8919286,10.8437517 11.3002804,10.8069075 11.5559322,10.5449102 C11.5760952,10.5242467 11.5945735,10.502004 11.6111904,10.4783946 C11.7833327,10.2338141 11.7246099,9.89599345 11.4800294,9.72385112 L10.6983051,9.17365269 C10.833899,8.9740509 10.9310732,8.69461257 10.9898305,8.33532934 C11.0350285,7.97604611 11.0576271,7.3433179 11.0576271,6.43712575 C11.0576271,5.42314862 11.0282489,4.74451269 10.9694915,4.4011976 C10.9062144,4.05788251 10.7909613,3.78044018 10.6237288,3.56886228 C10.3932192,3.16566665 10.0180817,2.8063888 9.49830508,2.49101796 C8.97400868,2.17165509 8.318648,2.00798407 7.53220339,2 C6.75479837,2.00798407 6.10621729,2.17165509 5.58644068,2.49101796 C5.05762447,2.8063888 4.67344753,3.16566665 4.43389831,3.56886228 C4.28474502,3.78044018 4.17401166,4.05788251 4.10169492,4.4011976 C4.03389797,4.74451269 4,5.42314862 4,6.43712575 C4,7.43513473 4.03389797,8.10977868 4.10169492,8.46107784 C4.13785329,8.64870353 4.18305058,8.8043906 4.23728814,8.92814371 C4.29604549,9.04790479 4.36158156,9.17365204 4.43389831,9.30538922 C4.67344753,9.70858485 5.05762447,10.0638707 5.58644068,10.3712575 C6.10621729,10.6906204 6.75479837,10.8582834 7.53220339,10.8742515 C8.50395966,10.8582834 9.28135302,10.6047929 9.86440678,10.1137725 Z" id="Combined-Shape"></path>
                                <path d="M8.63728814,9.24550898 L7.89474566,8.72365906 C7.65185396,8.55295769 7.59333213,8.21767427 7.76403349,7.97478257 C7.78092352,7.95074967 7.79975507,7.92814167 7.82033898,7.90718563 L7.82033898,7.90718563 C8.07656801,7.6463244 8.48386334,7.60901475 8.7832219,7.81898225 L9.41694915,8.26347305 C9.51186488,7.9680624 9.55932203,7.35928605 9.55932203,6.43712575 C9.55932203,5.57883802 9.52542407,4.99401353 9.45762712,4.68263473 C9.38531037,4.38722407 9.25197837,4.14570952 9.05762712,3.95808383 C8.90847383,3.77844222 8.70960576,3.62874311 8.46101695,3.50898204 C8.19886875,3.39321299 7.88926732,3.33133737 7.53220339,3.32335329 C7.17965925,3.33133737 6.87683742,3.39321299 6.62372881,3.50898204 C6.36610041,3.62874311 6.15819288,3.77844222 6,3.95808383 C5.80564875,4.14570952 5.67683647,4.38722407 5.61355932,4.68263473 C5.54124258,4.99401353 5.50508475,5.57883802 5.50508475,6.43712575 C5.50508475,7.29541347 5.54124258,7.87624599 5.61355932,8.17964072 C5.67683647,8.48303545 5.80564875,8.72854198 6,8.91616766 C6.15819288,9.09580928 6.36610041,9.24151641 6.62372881,9.35329341 C6.87683742,9.4850306 7.17965925,9.5508982 7.53220339,9.5508982 C7.99322264,9.5508982 8.36158054,9.44910281 8.63728814,9.24550898 Z" id="Q"></path>
                            </g>
                        </g>
                    </g>
                </g>
            </g>
        </g>
    </g>
</svg>