<?xml version="1.0" encoding="UTF-8"?>
<svg width="16px" height="16px" viewBox="0 0 16 16" version="1.1" xmlns="http://www.w3.org/2000/svg" xmlns:xlink="http://www.w3.org/1999/xlink">
    <!-- Generator: Sketch 49.3 (51167) - http://www.bohemiancoding.com/sketch -->
    <title>词典off</title>
    <desc>Created with Sketch.</desc>
    <defs></defs>
    <g id="用戶管理" stroke="none" stroke-width="1" fill="none" fill-rule="evenodd">
        <g id="用戶管理--編輯" transform="translate(-15.000000, -462.000000)" fill="#BABABA">
            <g id="sideBar" transform="translate(0.000000, 50.000000)">
                <g id="Group">
                    <g id="menu_l1" transform="translate(0.000000, 400.000000)">
                        <g id="优化" transform="translate(15.000000, 12.000000)">
                            <path d="M4,0.5 L4,15.5 L1,15.5 C0.44771525,15.5 6.76353751e-17,15.0522847 0,14.5 L0,1.5 C-6.76353751e-17,0.94771525 0.44771525,0.5 1,0.5 L4,0.5 Z M6,0.5 L15,0.5 C15.5522847,0.5 16,0.94771525 16,1.5 L16,14.5 C16,15.0522847 15.5522847,15.5 15,15.5 L6,15.5 L6,0.5 Z M8,2.5 C7.44771525,2.5 7,2.94771525 7,3.5 C7,4.05228475 7.44771525,4.5 8,4.5 L13,4.5 C13.5522847,4.5 14,4.05228475 14,3.5 C14,2.94771525 13.5522847,2.5 13,2.5 L8,2.5 Z M8,5.5 C7.44771525,5.5 7,5.94771525 7,6.5 C7,7.05228475 7.44771525,7.5 8,7.5 L13,7.5 C13.5522847,7.5 14,7.05228475 14,6.5 C14,5.94771525 13.5522847,5.5 13,5.5 L8,5.5 Z M8,8.5 C7.44771525,8.5 7,8.94771525 7,9.5 C7,10.0522847 7.44771525,10.5 8,10.5 L13,10.5 C13.5522847,10.5 14,10.0522847 14,9.5 C14,8.94771525 13.5522847,8.5 13,8.5 L8,8.5 Z" id="词典off"></path>
                        </g>
                    </g>
                </g>
            </g>
        </g>
    </g>
</svg>