<svg xmlns="http://www.w3.org/2000/svg" xmlns:xlink="http://www.w3.org/1999/xlink" width="18" height="18" viewBox="0 0 18 18">
    <defs>
        <path id="a" d="M9 15C5.897 15 3.153 13.135.77 9.404a.75.75 0 0 1 0-.808C3.153 4.866 5.897 3 9 3c3.103 0 5.847 1.865 8.23 5.596a.75.75 0 0 1 0 .808C14.847 13.134 12.103 15 9 15zm0-3a3 3 0 1 0 0-6 3 3 0 0 0 0 6zm0-2.25a.75.75 0 1 1 0-1.5.75.75 0 0 1 0 1.5z"/>
    </defs>
    <g fill="none" fill-rule="evenodd">
        <g>
            <mask id="b" fill="#fff">
                <use xlink:href="#a"/>
            </mask>
            <g fill="#CCC" mask="url(#b)">
                <rect width="18" height="18" rx="4"/>
            </g>
        </g>
    </g>
</svg>
