<?xml version="1.0" encoding="UTF-8"?>
<svg width="18px" height="18px" viewBox="0 0 18 18" version="1.1" xmlns="http://www.w3.org/2000/svg" xmlns:xlink="http://www.w3.org/1999/xlink">
    <!-- Generator: Sketch 50.2 (55047) - http://www.bohemiancoding.com/sketch -->
    <title>Custom Preset Copy</title>
    <desc>Created with Sketch.</desc>
    <defs>
        <path d="M4,0 L1086,0 C1088.20914,-4.05812251e-16 1090,1.790861 1090,4 L1090,766 C1090,768.209139 1088.20914,770 1086,770 L4,770 C1.790861,770 2.705415e-16,768.209139 0,766 L0,4 C-2.705415e-16,1.790861 1.790861,4.05812251e-16 4,0 Z" id="path-1"></path>
        <filter x="-0.7%" y="-1.0%" width="101.4%" height="101.9%" filterUnits="objectBoundingBox" id="filter-2">
            <feOffset dx="0" dy="0" in="SourceAlpha" result="shadowOffsetOuter1"></feOffset>
            <feGaussianBlur stdDeviation="2.5" in="shadowOffsetOuter1" result="shadowBlurOuter1"></feGaussianBlur>
            <feColorMatrix values="0 0 0 0 0.4   0 0 0 0 0.4   0 0 0 0 0.4  0 0 0 0.08 0" type="matrix" in="shadowBlurOuter1"></feColorMatrix>
        </filter>
        <rect id="path-3" x="0" y="0" width="360" height="112"></rect>
        <filter x="-6.7%" y="-13.4%" width="113.3%" height="142.9%" filterUnits="objectBoundingBox" id="filter-4">
            <feMorphology radius="0.5" operator="dilate" in="SourceAlpha" result="shadowSpreadOuter1"></feMorphology>
            <feOffset dx="0" dy="4" in="shadowSpreadOuter1" result="shadowOffsetOuter1"></feOffset>
            <feGaussianBlur stdDeviation="4.5" in="shadowOffsetOuter1" result="shadowBlurOuter1"></feGaussianBlur>
            <feComposite in="shadowBlurOuter1" in2="SourceAlpha" operator="out" result="shadowBlurOuter1"></feComposite>
            <feColorMatrix values="0 0 0 0 0.451318027   0 0 0 0 0.451318027   0 0 0 0 0.451318027  0 0 0 0.2 0" type="matrix" in="shadowBlurOuter1" result="shadowMatrixOuter1"></feColorMatrix>
            <feMorphology radius="0.5" operator="dilate" in="SourceAlpha" result="shadowSpreadOuter2"></feMorphology>
            <feOffset dx="0" dy="5" in="shadowSpreadOuter2" result="shadowOffsetOuter2"></feOffset>
            <feGaussianBlur stdDeviation="4" in="shadowOffsetOuter2" result="shadowBlurOuter2"></feGaussianBlur>
            <feComposite in="shadowBlurOuter2" in2="SourceAlpha" operator="out" result="shadowBlurOuter2"></feComposite>
            <feColorMatrix values="0 0 0 0 0.895089286   0 0 0 0 0.895089286   0 0 0 0 0.895089286  0 0 0 0.5 0" type="matrix" in="shadowBlurOuter2" result="shadowMatrixOuter2"></feColorMatrix>
            <feMerge>
                <feMergeNode in="shadowMatrixOuter1"></feMergeNode>
                <feMergeNode in="shadowMatrixOuter2"></feMergeNode>
            </feMerge>
        </filter>
        <rect id="path-5" x="0" y="0" width="72" height="28" rx="2"></rect>
    </defs>
    <g id="場景列表2.0" stroke="none" stroke-width="1" fill="none" fill-rule="evenodd">
        <g id="Custom-Preset" transform="translate(-301.000000, -265.000000)">
            <g id="Group-2">
                <g id="06-page/All-Bg" fill="#EEEEEE">
                    <rect id="Rectangle-3" x="0" y="0" width="1280" height="860"></rect>
                </g>
                <g id="06-page/All-CardBg" transform="translate(170.000000, 70.000000)">
                    <g id="page-Bg">
                        <use fill="black" fill-opacity="1" filter="url(#filter-2)" xlink:href="#path-1"></use>
                        <use fill="#FFFFFF" fill-rule="evenodd" xlink:href="#path-1"></use>
                    </g>
                </g>
            </g>
            <g id="Group" transform="translate(190.000000, 196.000000)">
                <g id="Rectangle">
                    <use fill="black" fill-opacity="1" filter="url(#filter-4)" xlink:href="#path-3"></use>
                    <use stroke="#DBDBDB" stroke-width="1" fill="#FFFFFF" fill-rule="evenodd" xlink:href="#path-3"></use>
                </g>
                <g id="Group-3" transform="translate(20.000000, 64.000000)">
                    <g id="00-Button/4-Icon" transform="translate(82.000000, 0.000000)">
                        <mask id="mask-6" fill="white">
                            <use xlink:href="#path-5"></use>
                        </mask>
                        <g id="Mask"></g>
                        <g id="13-Palette/General/white" mask="url(#mask-6)" fill="#FFFFFF" fill-rule="evenodd">
                            <rect id="white" x="0" y="0" width="72" height="28" rx="4"></rect>
                        </g>
                        <g id="13-Palette/Border/Normal" mask="url(#mask-6)" stroke="#DBDBDB" stroke-width="1">
                            <rect id="Fill/Disable" x="0.5" y="0.5" width="71" height="27" rx="2"></rect>
                        </g>
                        <g id="09-Font/12/Normal-left" mask="url(#mask-6)" font-family="PingFangSC-Regular, PingFang SC" font-size="12" font-weight="normal" line-spacing="28">
                            <g transform="translate(35.000000, 0.000000)" id="Font-Content">
                                <text>
                                    <tspan x="0" y="13" fill="#666666">發佈</tspan>
                                </text>
                            </g>
                        </g>
                    </g>
                    <path d="M101.557298,9.43172956 L100.500168,8.56022569 L100.500168,11.1841124 C100.500168,11.4603636 100.276292,11.6842396 100.000041,11.6842396 C99.72379,11.6842396 99.499914,11.4603636 99.499914,11.1841124 L99.499914,8.56010069 L98.4427843,9.43160456 C98.3496589,9.5084799 98.2369084,9.54585507 98.1247829,9.54585507 C97.9805323,9.54585507 97.8376566,9.48385479 97.7386562,9.36397926 C97.5629054,9.15085331 97.5932806,8.83560191 97.8062815,8.65997613 L99.6817898,7.11371926 C99.6885399,7.10809423 99.6961649,7.10421921 99.7032899,7.09896919 C99.71429,7.09084415 99.72529,7.08309412 99.7369151,7.07584409 C99.7520402,7.06646905 99.7675402,7.05821901 99.7834153,7.05059397 C99.7951653,7.04496895 99.8066654,7.03921892 99.8189155,7.0344689 C99.8371655,7.02734387 99.8556656,7.02209385 99.8744157,7.01721883 C99.8854157,7.01434381 99.8959158,7.0108438 99.9071658,7.00871879 C99.9686661,6.99709374 100.031541,6.99709374 100.092917,7.00871879 C100.104167,7.0108438 100.114792,7.01434381 100.125667,7.01721883 C100.144417,7.02209385 100.162917,7.02734387 100.181042,7.0344689 C100.193292,7.03921892 100.204792,7.04496895 100.216542,7.05059397 C100.232417,7.05821901 100.247792,7.06634404 100.262917,7.07584409 C100.274542,7.08309412 100.285668,7.09084415 100.296543,7.09896919 C100.303543,7.10421921 100.311168,7.10809423 100.318043,7.11371926 L102.193551,8.65997613 C102.406677,8.83572691 102.436927,9.15085331 102.261176,9.36397926 C102.085551,9.57698021 101.770174,9.60748034 101.557298,9.43172956 Z M92.0003807,13.7087486 C91.9997557,13.6954985 92.0000057,13.6824985 92.0003807,13.6693734 C92.0011307,13.6468733 92.0033807,13.6246232 92.0070057,13.6023731 C92.0091307,13.5896231 92.0111307,13.577123 92.0142558,13.5646229 C92.0200058,13.5413728 92.0280058,13.5188727 92.0371309,13.4964976 C92.0413809,13.4861226 92.0447559,13.4756225 92.0496309,13.4654975 C92.062631,13.4388724 92.078506,13.4137473 92.0962561,13.3894972 C92.0993811,13.3852471 92.1011311,13.3803721 92.1043812,13.3762471 C92.1048812,13.3756221 92.1055062,13.3752471 92.1060062,13.3746221 C92.1276313,13.347372 92.1518814,13.3218719 92.1797565,13.2988718 L95.21277,10.7982356 C95.4258959,10.6219849 95.7411473,10.65311 95.9166481,10.8658609 C96.0923989,11.0789869 96.0620237,11.3942383 95.8490228,11.5698641 L93.8910141,13.1846212 L97.1271535,13.1846212 C97.4034047,13.1846212 97.6272807,13.4084972 97.6272807,13.6847485 C97.6272807,13.9609997 97.4034047,14.1848757 97.1271535,14.1848757 L93.1366357,14.1848757 L94.5571421,19.9526513 L105.442815,19.9526513 L106.863572,14.1848757 L103.336806,14.1848757 C103.096805,15.829133 101.691924,17.0951386 99.9999163,17.0951386 C99.723665,17.0951386 99.499789,16.8712626 99.499789,16.5950114 C99.499789,16.3187602 99.723665,16.0948842 99.9999163,16.0948842 C101.308172,16.0948842 102.372677,15.0136294 102.372677,13.6847485 C102.372677,13.4084972 102.596553,13.1846212 102.872804,13.1846212 L106.108943,13.1846212 L104.15056,11.5699891 C103.937434,11.3942383 103.907184,11.0791119 104.082934,10.8659859 C104.258685,10.65286 104.573937,10.6228599 104.786938,10.7983606 L107.819951,13.2989968 C107.847826,13.3219969 107.872076,13.347497 107.893701,13.3746221 C107.894201,13.3752471 107.894951,13.3757471 107.895451,13.3763721 C107.898951,13.3808721 107.900951,13.3861221 107.904201,13.3906222 C107.921701,13.4144973 107.937327,13.4391224 107.950077,13.4652475 C107.955327,13.4759975 107.958952,13.4871226 107.963327,13.4981226 C107.972077,13.5197477 107.979827,13.5413728 107.985452,13.5638729 C107.988702,13.576998 107.990952,13.5901231 107.993077,13.6034981 C107.996702,13.6251232 107.998827,13.6467483 107.999577,13.6687484 C108.000077,13.6822485 108.000202,13.6954985 107.999577,13.7091236 C107.998452,13.7326237 107.995077,13.7556238 107.990577,13.7788739 C107.988952,13.7873739 107.989327,13.795999 107.987327,13.804499 L106.320319,20.5725291 C106.265194,20.7960301 106.064943,20.9530308 105.834692,20.9530308 L94.1652653,20.9530308 C93.9352643,20.9530308 93.7347634,20.7960301 93.6795132,20.5725291 L92.0126307,13.804374 C92.0105057,13.795749 92.0110057,13.7869989 92.0093807,13.7783739 C92.0048807,13.7552488 92.0015057,13.7321237 92.0003807,13.7087486 Z" id="Combined-Shape" fill="#888888" fill-rule="nonzero"></path>
                </g>
            </g>
        </g>
    </g>
</svg>