<?xml version="1.0" encoding="UTF-8"?>
<svg width="18px" height="18px" viewBox="0 0 18 18" version="1.1" xmlns="http://www.w3.org/2000/svg" xmlns:xlink="http://www.w3.org/1999/xlink">
    <!-- Generator: sketchtool 50.2 (55047) - http://www.bohemiancoding.com/sketch -->
    <title>AF8E31A6-AC0B-455E-A669-56B2243D966D</title>
    <desc>Created with sketchtool.</desc>
    <defs></defs>
    <g id="components" stroke="none" stroke-width="1" fill="none" fill-rule="evenodd">
        <g id="ICON" transform="translate(-72.000000, -378.000000)">
            <g id="Tip" transform="translate(36.000000, 378.000000)">
                <g id="03-Icon/03-tooltip/info" transform="translate(36.000000, 0.000000)">
                    <rect id="Rectangle-3" x="0" y="0" width="18" height="18"></rect>
                    <circle id="Combined-Shape" fill="#CCCCCC" fill-rule="evenodd" cx="9" cy="9" r="6.5"></circle>
                    <path d="M8.99694378,5.0999999 C9.26343224,5.0999999 9.48903848,5.19272294 9.67353048,5.37822331 C9.85802248,5.55969085 9.95000017,5.77961874 9.95000017,6.03770584 C9.95000017,6.29579294 9.8557316,6.5154474 9.6671397,6.69691494 C9.48264771,6.87838248 9.25933234,6.96912577 8.99694378,6.96912577 C8.73455509,6.96912577 8.51096187,6.87838248 8.32646988,6.69691494 C8.14197788,6.5154474 8.05000019,6.29579294 8.05000019,6.03770584 C8.05000019,5.77961874 8.14197788,5.55969085 8.32646988,5.37822331 C8.51096187,5.19272294 8.73455509,5.0999999 8.99694378,5.0999999 Z M7.69999981,7.69999981 L9.79999977,7.69999981 L9.79999977,12.1754096 C9.80300977,12.6766279 10.1600736,12.8432646 10.4999998,12.8639341 L10.4999998,13.2081964 L7.69999981,13.2081964 L7.69999981,12.8639341 C8.18171362,12.8493237 8.3940694,12.5063833 8.3999998,12.1754096 L8.3999998,8.73278668 C8.3999998,8.38852439 7.88276925,8.05519036 7.69999981,8.0442621 L7.69999981,7.69999981 Z" id="Combined-Shape" fill="#FFFFFF" fill-rule="evenodd"></path>
                </g>
            </g>
        </g>
    </g>
</svg>