<svg xmlns="http://www.w3.org/2000/svg" xmlns:xlink="http://www.w3.org/1999/xlink" width="18" height="18" viewBox="0 0 18 18">
    <defs>
        <path id="a" d="M9 16A7 7 0 1 1 9 2a7 7 0 0 1 0 14zm.054-11.178c-.448 0-.808.39-.808.873V9.77c0 .484.36.873.808.873.447 0 .808-.39.808-.873V5.695c0-.484-.36-.873-.808-.873zm0 6.793a.808.808 0 1 0 0 1.615.808.808 0 0 0 0-1.615z"/>
    </defs>
    <g fill="none" fill-rule="evenodd">
        <g>
            <mask id="b" fill="#fff">
                <use xlink:href="#a"/>
            </mask>
            <g fill="#F68C6D" mask="url(#b)">
                <rect width="18" height="18" rx="4"/>
            </g>
        </g>
    </g>
</svg>
