<?xml version="1.0" encoding="utf-8"?>
<!-- Generator: Adobe Illustrator 21.1.0, SVG Export Plug-In . SVG Version: 6.00 Build 0)  -->
<svg version="1.1" id="圖層_1" xmlns="http://www.w3.org/2000/svg" xmlns:xlink="http://www.w3.org/1999/xlink" x="0px" y="0px"
	 viewBox="0 0 30 30" style="enable-background:new 0 0 30 30;" xml:space="preserve">
<style type="text/css">
	.st0{fill:#FFFFFF;}
</style>
<path class="st0" d="M17.5,26.5H2.3c-0.7,0-1.3-0.6-1.3-1.2V15C1,8.7,6.1,3.5,12.5,3.5h5.1C23.9,3.5,29,8.7,29,15
	S23.9,26.5,17.5,26.5z M2.9,24.7h14.7c5.3,0,9.6-4.3,9.6-9.7c0-5.3-4.3-9.7-9.6-9.7h-5.1c-5.3,0-9.6,4.3-9.6,9.7V24.7z"/>
<g>
	<ellipse id="Oval-3" class="st0" cx="8.4" cy="15" rx="2.3" ry="2.3"/>
	<ellipse id="Oval-3_1_" class="st0" cx="15" cy="15" rx="2.3" ry="2.3"/>
	<ellipse id="Oval-3_2_" class="st0" cx="21.6" cy="15" rx="2.3" ry="2.3"/>
</g>
</svg>
