<svg xmlns="http://www.w3.org/2000/svg" width="300" height="150" viewBox="0 0 300 150">
    <g fill="none" fill-rule="evenodd">
        <g fill="#FEFEFE">
            <path d="M235.617 27.842h18.607v6.91a.251.251 0 0 1-.252.25H235.62V27.96c0-.04 0-.079-.003-.118m18.607-10.817v6.52h-18.686v-5.64c0-.625.506-1.131 1.13-1.131h17.304c.139 0 .252.112.252.251m4.588-4.626h-23.04a5.153 5.153 0 0 0-5.152 5.154v62.96c0 .14.113.252.252.252h4.497a.251.251 0 0 0 .251-.251V39.378h23.192a.252.252 0 0 0 .251-.252V12.65a.251.251 0 0 0-.251-.25M289.979 20.826l-.02.005v2.714H270.67v-6.52c0-.138.113-.251.252-.251h18.177a.88.88 0 0 1 .88.88v3.172zm-.015 14.177h-19.042a.251.251 0 0 1-.252-.252v-6.91h19.292l.002 7.162zm5.01-17.45a5.153 5.153 0 0 0-5.15-5.154h-23.742a.251.251 0 0 0-.252.252v26.553c0 .14.113.252.252.252h23.884l.013 35.056c0 .836-.041.946-1.122 1.01-.381.022-2.484.104-6.5-.457l-.36-.05a.251.251 0 0 0-.282.205l-.763 4.33c-.024.138.07.27.209.291l.38.06c1.188.185 4.35.635 7.047.635 1.17 0 2.253-.084 3.049-.312l.026-.008c2.476-.826 3.312-2.172 3.312-5.333l-.002-3.632h.002V17.554z"/>
            <path d="M252.715 56.414v-6.879c0-.139.113-.251.251-.251h18.412a.88.88 0 0 1 .88.88v6.25h-19.543zm19.543 4.53v7.79a.251.251 0 0 1-.252.252h-19.04a.251.251 0 0 1-.25-.252v-7.79h19.542zm-.39-16.269h-23.664a.251.251 0 0 0-.25.251v28.339c0 .139.112.251.25.251h28.564a.251.251 0 0 0 .251-.251V49.829a5.153 5.153 0 0 0-5.151-5.154zM154.233 25.422h-18.518c1.52-3.989 2.925-8.337 4.181-12.94a2.436 2.436 0 0 0-.274-1.912 2.434 2.434 0 0 0-1.58-1.106l-.257-.052a2.415 2.415 0 0 0-2.832 1.78c-3.242 12.93-8.362 24.482-14.046 31.695l-.259.328a.251.251 0 0 0 .063.368l3.855 2.776c.11.098.282.08.37-.04l.244-.334c2.908-3.976 5.785-9.237 8.552-15.643h4.49v50.49c0 .139.112.251.25.251h4.416a.251.251 0 0 0 .251-.251v-50.49h11.094a.251.251 0 0 0 .252-.251v-4.418a.251.251 0 0 0-.252-.251"/>
            <path d="M165.536 25.422c1.413-3.873 2.696-8.11 3.913-12.916.16-.632.097-1.314-.228-1.88a2.407 2.407 0 0 0-1.599-1.166l-.119-.025a2.433 2.433 0 0 0-2.86 1.807c-3.138 13.262-7.96 24.495-13.577 31.63l-.256.324a.251.251 0 0 0 .046.356l3.734 2.823a.251.251 0 0 0 .354-.052l.296-.404c2.96-4.044 5.714-9.142 8.41-15.577h12.196v44.674c0 .837-.041.946-1.122 1.01-.38.022-2.482.105-6.5-.456l-.36-.05a.251.251 0 0 0-.281.205l-.763 4.329c-.025.139.07.27.208.292l.38.06c1.188.185 4.35.635 7.048.635 1.17 0 2.252-.085 3.048-.312l.026-.008c2.476-.827 3.312-2.172 3.312-5.334V30.342h11.085a.251.251 0 0 0 .25-.251v-4.418a.251.251 0 0 0-.25-.251h-26.39z"/>
        </g>
        <g fill="#FEFEFE">
            <path d="M96.808 117.626c-.772 0-1.429.222-1.953.66-.529.444-.787.98-.787 1.636v23.494c0 .652.265 1.202.786 1.635.522.44 1.178.663 1.954.663h10.25c.775 0 1.432-.223 1.951-.661.526-.435.791-.985.791-1.637v-23.494c0-.655-.259-1.19-.79-1.637-.524-.437-1.18-.66-1.952-.66h-10.25zm0 31.511c-1.902 0-3.533-.557-4.848-1.655-1.33-1.119-1.977-2.448-1.977-4.066v-23.494c0-1.62.647-2.948 1.977-4.06 1.316-1.101 2.947-1.66 4.848-1.66h10.25c1.9 0 3.531.559 4.847 1.66 1.334 1.115 1.983 2.443 1.983 4.06v23.494c0 1.616-.649 2.946-1.982 4.065-1.335 1.115-2.921 1.656-4.848 1.656h-10.25z"/>
            <path d="M96.808 145.37c-.692 0-1.274-.196-1.73-.58-.45-.374-.666-.822-.666-1.374v-23.494c0-.549.218-.998.665-1.374.459-.383 1.042-.578 1.73-.578h10.251c.689 0 1.272.195 1.732.58.448.376.666.825.666 1.372v23.494c0 .552-.217 1-.664 1.37-.46.389-1.042.584-1.734.584h-10.25zm10.25-31.512h-10.25c-1.984 0-3.689.585-5.068 1.74-1.413 1.18-2.1 2.595-2.1 4.324v23.494c0 1.726.686 3.142 2.099 4.328 1.379 1.153 3.084 1.737 5.069 1.737h10.25c2.01 0 3.668-.567 5.068-1.735 1.417-1.19 2.105-2.606 2.105-4.33v-23.494c0-1.725-.688-3.14-2.105-4.324-1.38-1.155-3.085-1.74-5.068-1.74zm-10.25 32.2h10.25c.858 0 1.59-.25 2.173-.742.606-.502.913-1.141.913-1.9v-23.494c0-.753-.307-1.391-.913-1.9-.587-.491-1.319-.74-2.173-.74h-10.25c-.855 0-1.586.249-2.174.74-.603.507-.91 1.146-.91 1.9v23.494c0 .759.307 1.398.91 1.9.584.493 1.315.742 2.174.742zm10.25-31.512c1.818 0 3.374.532 4.627 1.58 1.25 1.046 1.859 2.288 1.859 3.796v23.494c0 1.508-.608 2.752-1.859 3.801-1.27 1.06-2.784 1.576-4.627 1.576h-10.25c-1.82 0-3.376-.53-4.627-1.576-1.248-1.048-1.854-2.291-1.854-3.8v-23.495c0-1.512.606-2.754 1.854-3.796 1.252-1.048 2.809-1.58 4.627-1.58h10.25zM196.49 129.674l12.652-.006c.78 0 1.435-.22 1.948-.654.527-.441.793-.994.793-1.643v-7.45c0-.644-.265-1.194-.788-1.632-.524-.44-1.18-.663-1.953-.663H196.49v12.048zm0 16.043l12.995-.003c.773 0 1.428-.222 1.947-.66.533-.442.791-.977.791-1.638v-8.02c0-.657-.258-1.192-.79-1.637-.522-.44-1.177-.662-1.948-.662H196.49v12.62zm-4.08 3.42l-.005-34.931 16.737-.004c1.901 0 3.532.559 4.848 1.66 1.332 1.117 1.979 2.445 1.979 4.06v7.449c0 .891-.245 1.65-.749 2.321-.5.664-1.167 1.23-1.98 1.686l-.014.007.01.005c.9.413 1.648.97 2.223 1.657.573.7.85 1.466.85 2.348v8.02c0 1.623-.648 2.951-1.983 4.062-1.33 1.117-2.914 1.66-4.841 1.66H192.41z"/>
            <path d="M196.834 133.441h12.65c.689 0 1.27.196 1.728.58.45.377.667.826.667 1.374v8.021c0 .552-.217 1-.664 1.37-.46.389-1.04.584-1.73.584l-12.651.003v-11.932zm0-15.471h12.308c.69 0 1.272.196 1.731.582.449.376.666.824.666 1.37v7.449c0 .55-.218 1-.669 1.377-.452.383-1.032.576-1.728.576l-12.308.006v-11.36zm12.308-4.112l-16.393.004h-.688v.688l.005 34.243v.688h17.419c2.01 0 3.667-.57 5.063-1.741 1.416-1.179 2.105-2.594 2.105-4.324v-8.02c0-.966-.303-1.804-.927-2.564a6.409 6.409 0 0 0-1.796-1.474 6.416 6.416 0 0 0 1.564-1.458c.552-.733.819-1.56.819-2.53v-7.448c0-1.723-.688-3.137-2.102-4.324-1.38-1.155-3.085-1.74-5.07-1.74zm-12.996 32.203l13.339-.003c.856 0 1.586-.25 2.169-.742.606-.502.913-1.141.913-1.9v-8.02c0-.755-.307-1.394-.912-1.901-.586-.492-1.316-.742-2.17-.742h-13.339v13.308zm0-16.043l12.996-.006c.863 0 1.593-.247 2.17-.736.607-.508.915-1.15.915-1.905v-7.45c0-.75-.307-1.39-.912-1.896-.586-.493-1.318-.743-2.173-.743h-12.996v12.736zm12.996-15.472c1.818 0 3.375.532 4.627 1.58 1.249 1.048 1.856 2.29 1.856 3.796v7.449c0 .814-.222 1.506-.68 2.114-.473.627-1.104 1.162-1.873 1.592l-.61.34.632.287c.852.39 1.559.916 2.1 1.564.52.633.771 1.328.771 2.127v8.021c0 1.513-.608 2.755-1.859 3.797-1.266 1.063-2.778 1.58-4.621 1.58h-16.732l-.004-34.243 16.393-.004zM238.238 117.626c-.776 0-1.433.222-1.955.66-.522.437-.787.987-.787 1.636v23.494c0 .663.257 1.198.785 1.634.52.441 1.178.664 1.957.664h10.248c.775 0 1.43-.222 1.947-.66.533-.44.791-.975.791-1.638v-23.494c0-.648-.265-1.198-.789-1.637-.521-.437-1.177-.66-1.95-.66h-10.247zm0 31.511c-1.903 0-3.535-.557-4.85-1.655-1.33-1.118-1.977-2.448-1.977-4.066v-23.494c0-1.62.647-2.949 1.977-4.06 1.315-1.101 2.947-1.66 4.85-1.66h10.248c1.903 0 3.535.559 4.847 1.66 1.334 1.115 1.982 2.443 1.982 4.06v23.494c0 1.616-.648 2.946-1.982 4.065-1.337 1.115-2.923 1.656-4.847 1.656h-10.248z"/>
            <path d="M238.238 145.37c-.696 0-1.279-.195-1.732-.58-.45-.372-.666-.82-.666-1.374v-23.494c0-.55.217-.999.664-1.373.458-.384 1.042-.58 1.734-.58h10.248c.689 0 1.27.196 1.728.58.448.375.666.824.666 1.373v23.494c0 .554-.217 1.002-.662 1.37l-.004.002-.003.003c-.453.384-1.033.579-1.725.579h-10.248zm10.248-31.512h-10.248c-1.986 0-3.692.585-5.07 1.74-1.414 1.18-2.1 2.595-2.1 4.324v23.494c0 1.726.686 3.142 2.099 4.328 1.379 1.153 3.085 1.737 5.071 1.737h10.248c2.008 0 3.665-.567 5.067-1.735 1.418-1.19 2.106-2.606 2.106-4.33v-23.494c0-1.725-.689-3.14-2.106-4.324-1.375-1.154-3.08-1.74-5.067-1.74zm-10.248 32.2h10.248c.859 0 1.589-.25 2.17-.742.606-.5.912-1.139.912-1.9v-23.494c0-.754-.307-1.394-.912-1.9-.585-.491-1.315-.74-2.17-.74h-10.248c-.859 0-1.591.249-2.176.74-.603.505-.91 1.145-.91 1.9v23.494c0 .762.307 1.4.91 1.9.581.493 1.314.742 2.176.742zm10.248-31.512c1.82 0 3.377.532 4.626 1.58 1.251 1.046 1.86 2.288 1.86 3.796v23.494c0 1.508-.609 2.752-1.86 3.801-1.272 1.06-2.785 1.576-4.626 1.576h-10.248c-1.82 0-3.378-.53-4.63-1.576-1.247-1.048-1.853-2.291-1.853-3.8v-23.495c0-1.512.606-2.754 1.854-3.796 1.251-1.048 2.81-1.58 4.63-1.58h10.247zM173.94 149.137a.709.709 0 0 1-.717-.715v-33.5c0-.404.315-.72.717-.72h2.648c.397 0 .72.323.72.72v33.5a.718.718 0 0 1-.72.715h-2.648z"/>
            <path d="M176.588 113.858h-2.648c-.585 0-1.061.477-1.061 1.064v33.5c0 .584.476 1.06 1.061 1.06h2.648c.587 0 1.064-.476 1.064-1.06v-33.5c0-.587-.477-1.064-1.064-1.064m0 .688c.208 0 .377.169.377.376v33.5c0 .205-.17.371-.377.371h-2.648a.368.368 0 0 1-.374-.37v-33.5c0-.211.165-.377.374-.377h2.648M6.456 149.625c-4.056 0-6.112-2.313-6.112-6.876v-22.043c0-4.559 1.773-6.504 5.929-6.504h17.754l.005 2.289c0 .716-.401 1.127-1.1 1.127H6.622c-2.254 0-2.5.552-2.5 2.729v9.801l16.288.035.006 2.343c0 .71-.384 1.117-1.053 1.117H4.118l.004 9.511c0 2.259.828 3.099 3.054 3.099h15.746c.716 0 1.11.382 1.11 1.077v2.295H6.456z"/>
            <path d="M24.37 113.858H6.273c-2.207 0-3.774.545-4.79 1.665C.471 116.64 0 118.286 0 120.706v22.043c0 2.394.524 4.15 1.6 5.37 1.085 1.228 2.719 1.85 4.856 1.85H24.376v-2.638c0-.89-.544-1.422-1.454-1.422H7.176c-2.026 0-2.71-.695-2.71-2.755l-.004-9.167h14.9c.862 0 1.397-.56 1.397-1.46l-.004-2.002-.002-.685-.684-.001-15.603-.034v-9.458c0-1.116.098-1.687.339-1.97.244-.287.805-.415 1.818-.415h16.309c.89 0 1.444-.563 1.444-1.47l-.005-1.948-.001-.686zm-.686.688l.004 1.946c0 .526-.247.782-.756.782H6.622c-2.45 0-2.843.73-2.843 3.073v10.144l16.288.036.005 2c0 .52-.232.772-.71.772H3.775l.005 9.855c0 2.445.984 3.443 3.397 3.443h15.746c.53 0 .766.226.766.733v1.951H6.456c-3.882 0-5.768-2.136-5.768-6.532v-22.043c0-4.375 1.618-6.16 5.585-6.16h17.41zM39.776 127.376l-.01-12.2.011-.1v-.183l.01-.045c.138-.517.495-.78 1.063-.78h3.648l12.837 21.608 12.826-21.604 3.638-.004c.757 0 .979.467 1.044.745l.004.019.039.328v34.447h-3.824l-.06-30.124-12.117 20.191-3.116.003-12.17-20.153.007 30.077-3.825.007-.005-22.232z"/>
            <path d="M73.8 113.724h-.001l-3.443.004h-.39l-.2.336-12.43 20.938-12.442-20.941-.2-.337H40.85c-.722 0-1.218.368-1.395 1.036l-.023.089v.092l.001.116-.007.06-.004.04v.04l.01 12.18.005 21.886v.69l.689-.002 3.137-.005.687-.001v-.687l-.007-28.499 11.432 18.93.2.332h.389l2.726-.002h.39l.2-.334 11.38-18.965.058 28.545.001.686h4.512v-.688l-.001-34.083v-.04l-.005-.041-.034-.29-.005-.037-.008-.037c-.071-.304-.347-1.01-1.379-1.01m0 .687c.402 0 .634.157.709.479l.034.29.001 34.082h-3.138l-.062-31.017L58.69 139.33l-2.727.001-12.709-21.043.008 30.969-3.138.005-.004-21.887-.01-12.18.011-.102v-.157c.097-.37.327-.525.73-.525h3.452l13.033 21.937 13.02-21.933 3.443-.004M141.514 149.137l-.005-31.517-12.52.006-.005-2.297c0-.84.53-1.05.846-1.1l.203-.026h27.197l.035.006c.58.121.861.487.861 1.119v2.283l-.727.015H145.59l.004 31.511h-4.081z"/>
            <path d="M157.266 113.858h-.071l-27.14.001h-.045l-.044.006-.171.022-.01.001-.008.002c-.342.054-1.137.301-1.137 1.438l.005 1.955.001.687h.687l11.833-.005.004 30.828v.688h4.769v-.688l-.004-30.823h11.471l.39-.008.674-.014v-2.62c0-1.06-.711-1.367-1.135-1.455l-.07-.015zm-.071.688c.42.088.587.32.587.782v1.946l-.39.008h-12.145l.005 31.511h-3.395l-.004-31.517-12.52.006-.005-1.954c0-.288.058-.68.556-.759l.171-.022h27.14zM282.942 149.137l-.005-31.517-12.522.006-.006-2.297c0-.84.53-1.05.846-1.1l.206-.026h27.194l.035.007c.573.12.864.496.864 1.118v2.283l-.73.015h-11.805l.004 31.511h-4.081z"/>
            <path d="M298.691 113.858h-.071l-27.137.001h-.043l-.044.005-.175.023-.01.001-.01.002c-.341.054-1.135.301-1.135 1.438l.004 1.955.002.687h.686l11.836-.005.004 30.828v.688h4.769v-.688l-.004-30.823h11.468l.393-.008.674-.014v-2.62c0-1.058-.712-1.366-1.137-1.455l-.07-.015zm-.071.688c.417.088.59.328.59.782v1.946l-.393.008h-12.142l.004 31.511h-3.394l-.004-31.517-12.523.006-.005-1.954c0-.288.057-.68.556-.759l.174-.022h27.137z"/>
        </g>
        <path fill="#35BDCE" d="M96.302 9.109c0-.548-.383-.767-.855-.49L49.8 35.72c-.47.278-1.242.729-1.714 1.002L1.143 63.788c-.472.276-.472.717.003.986l46.937 26.509c.475.27 1.248.263 1.721-.014l45.64-26.766c.472-.28.858-.951.858-1.499V9.11z"/>
        <path fill="#E185B7" d="M47.888 36.838L1.143 63.788c-.472.275-.472.717.003.986l46.937 26.509s.15.103.495.169c.158.03.366.03.366.03V36.223l-1.056.614z"/>
        <path fill="#FFF" d="M48.585 26.796c.477.268.477.71.005.983L1.645 54.849c-.472.275-.858.047-.858-.496V.79c0-.546.386-.774.862-.505l46.936 26.511z"/>
    </g>
</svg>
