<svg xmlns="http://www.w3.org/2000/svg" width="300" height="150" viewBox="0 0 300 150">
    <g fill="none" fill-rule="evenodd">
        <g fill="#FEFEFE">
            <path d="M96.808 117.558c-.772 0-1.429.222-1.953.66-.529.444-.787.979-.787 1.635v23.48c0 .652.265 1.202.786 1.634.522.44 1.178.663 1.954.663h10.25c.775 0 1.432-.222 1.951-.66.526-.435.791-.985.791-1.636v-23.481c0-.654-.259-1.19-.79-1.636-.524-.437-1.18-.659-1.952-.659h-10.25zm0 31.494c-1.902 0-3.533-.557-4.848-1.655-1.33-1.117-1.977-2.446-1.977-4.063v-23.481c0-1.62.647-2.946 1.977-4.058 1.316-1.1 2.947-1.658 4.848-1.658h10.25c1.9 0 3.531.558 4.847 1.658 1.334 1.115 1.983 2.442 1.983 4.058v23.48c0 1.616-.649 2.945-1.982 4.064-1.335 1.113-2.921 1.655-4.848 1.655h-10.25z"/>
            <path d="M96.808 145.286c-.692 0-1.274-.195-1.73-.58-.45-.373-.666-.82-.666-1.372v-23.48c0-.55.218-.998.665-1.374.459-.383 1.042-.578 1.73-.578h10.251c.689 0 1.272.195 1.732.58.448.376.666.825.666 1.371v23.48c0 .552-.217 1-.664 1.37-.46.388-1.042.583-1.734.583h-10.25zm10.25-31.493h-10.25c-1.984 0-3.689.585-5.068 1.739-1.413 1.18-2.1 2.594-2.1 4.321v23.48c0 1.726.686 3.14 2.099 4.327 1.379 1.152 3.084 1.736 5.069 1.736h10.25c2.01 0 3.668-.568 5.068-1.735 1.417-1.189 2.105-2.604 2.105-4.327v-23.48c0-1.725-.688-3.138-2.105-4.322-1.38-1.154-3.085-1.739-5.068-1.739zm-10.25 32.181h10.25c.858 0 1.59-.249 2.173-.741.606-.502.913-1.141.913-1.9v-23.48c0-.752-.307-1.39-.913-1.9-.587-.49-1.319-.738-2.173-.738h-10.25c-.855 0-1.586.249-2.174.739-.603.507-.91 1.145-.91 1.9v23.48c0 .758.307 1.397.91 1.898.584.493 1.315.742 2.174.742zm10.25-31.493c1.818 0 3.374.53 4.627 1.578 1.25 1.046 1.859 2.287 1.859 3.794v23.48c0 1.508-.608 2.751-1.859 3.8-1.27 1.06-2.784 1.575-4.627 1.575h-10.25c-1.82 0-3.376-.53-4.627-1.575-1.248-1.047-1.854-2.29-1.854-3.8v-23.48c0-1.511.606-2.752 1.854-3.794 1.252-1.047 2.809-1.578 4.627-1.578h10.25zM196.49 129.6l12.652-.006c.78 0 1.435-.22 1.948-.654.527-.441.793-.993.793-1.642v-7.445c0-.645-.265-1.194-.788-1.632-.524-.44-1.18-.663-1.953-.663H196.49V129.6zm0 16.034l12.995-.004c.773 0 1.428-.222 1.947-.66.533-.441.791-.976.791-1.636v-8.016c0-.656-.258-1.191-.79-1.636-.522-.439-1.177-.661-1.948-.661H196.49v12.613zm-4.08 3.418l-.005-34.912 16.737-.003c1.901 0 3.532.558 4.848 1.658 1.332 1.117 1.979 2.444 1.979 4.058v7.445c0 .891-.245 1.65-.749 2.32-.5.663-1.167 1.23-1.98 1.684l-.014.008.01.005c.9.412 1.648.97 2.223 1.656.573.698.85 1.465.85 2.347v8.016c0 1.62-.648 2.948-1.983 4.059-1.33 1.116-2.914 1.659-4.841 1.659H192.41z"/>
            <path d="M196.834 133.365h12.65c.689 0 1.27.195 1.728.58.45.376.667.825.667 1.373v8.016c0 .551-.217 1-.664 1.369-.46.389-1.04.583-1.73.583l-12.651.004v-11.925zm0-15.463h12.308c.69 0 1.272.196 1.731.582.449.376.666.823.666 1.369v7.445c0 .55-.218 1-.669 1.377-.452.382-1.032.575-1.728.575l-12.308.005v-11.353zm12.308-4.11l-16.393.004h-.688v.688l.005 34.224v.688h17.419c2.01 0 3.667-.57 5.063-1.74 1.416-1.179 2.105-2.593 2.105-4.322v-8.016c0-.965-.303-1.803-.927-2.563a6.408 6.408 0 0 0-1.796-1.473 6.415 6.415 0 0 0 1.564-1.456c.552-.733.819-1.56.819-2.528v-7.445c0-1.721-.688-3.135-2.102-4.32-1.38-1.155-3.085-1.74-5.07-1.74zm-12.996 32.185l13.339-.003c.856 0 1.586-.249 2.169-.741.606-.502.913-1.141.913-1.9v-8.015c0-.754-.307-1.393-.912-1.9-.586-.492-1.316-.74-2.17-.74h-13.339v13.3zm0-16.034l12.996-.005c.863 0 1.593-.247 2.17-.736.607-.508.915-1.149.915-1.904v-7.445c0-.751-.307-1.39-.912-1.896-.586-.493-1.318-.742-2.173-.742h-12.996v12.728zm12.996-15.463c1.818 0 3.375.532 4.627 1.58 1.249 1.046 1.856 2.287 1.856 3.793v7.445c0 .813-.222 1.505-.68 2.113-.473.626-1.104 1.16-1.873 1.591l-.61.34.632.286c.852.39 1.559.916 2.1 1.564.52.632.771 1.326.771 2.126v8.016c0 1.512-.608 2.753-1.859 3.795-1.266 1.062-2.778 1.579-4.621 1.579h-16.732l-.004-34.224 16.393-.004zM238.238 117.558c-.776 0-1.433.222-1.955.66-.522.436-.787.987-.787 1.635v23.48c0 .663.257 1.198.785 1.634.52.44 1.178.663 1.957.663h10.248c.775 0 1.43-.222 1.947-.66.533-.44.791-.974.791-1.636v-23.481c0-.647-.265-1.197-.789-1.636-.521-.437-1.177-.659-1.95-.659h-10.247zm0 31.494c-1.903 0-3.535-.557-4.85-1.655-1.33-1.117-1.977-2.446-1.977-4.063v-23.481c0-1.62.647-2.947 1.977-4.058 1.315-1.1 2.947-1.658 4.85-1.658h10.248c1.903 0 3.535.558 4.847 1.659 1.334 1.114 1.982 2.441 1.982 4.057v23.48c0 1.616-.648 2.945-1.982 4.064-1.337 1.114-2.923 1.655-4.847 1.655h-10.248z"/>
            <path d="M238.238 145.286c-.696 0-1.279-.195-1.732-.579-.45-.372-.666-.82-.666-1.373v-23.48c0-.55.217-.999.664-1.373.458-.384 1.042-.579 1.734-.579h10.248c.689 0 1.27.195 1.728.579.448.375.666.824.666 1.372v23.48c0 .554-.217 1.002-.662 1.37l-.004.002-.003.003c-.453.384-1.033.578-1.725.578h-10.248zm10.248-31.493h-10.248c-1.986 0-3.692.585-5.07 1.739-1.414 1.18-2.1 2.594-2.1 4.321v23.48c0 1.726.686 3.14 2.099 4.327 1.379 1.152 3.085 1.736 5.071 1.736h10.248c2.008 0 3.665-.568 5.067-1.735 1.418-1.189 2.106-2.604 2.106-4.327v-23.48c0-1.725-.689-3.138-2.106-4.322-1.375-1.154-3.08-1.739-5.067-1.739zm-10.248 32.181h10.248c.859 0 1.589-.249 2.17-.741.606-.5.912-1.139.912-1.9v-23.48c0-.754-.307-1.393-.912-1.9-.585-.49-1.315-.738-2.17-.738h-10.248c-.859 0-1.591.249-2.176.739-.603.505-.91 1.144-.91 1.9v23.48c0 .761.307 1.4.91 1.898.581.493 1.314.742 2.176.742zm10.248-31.493c1.82 0 3.377.53 4.626 1.578 1.251 1.046 1.86 2.287 1.86 3.794v23.48c0 1.508-.609 2.751-1.86 3.8-1.272 1.06-2.785 1.575-4.626 1.575h-10.248c-1.82 0-3.378-.53-4.63-1.575-1.247-1.047-1.853-2.29-1.853-3.8v-23.48c0-1.511.606-2.752 1.854-3.794 1.251-1.047 2.81-1.578 4.63-1.578h10.247zM173.94 149.052a.708.708 0 0 1-.717-.715v-33.48c0-.404.315-.72.717-.72h2.648a.72.72 0 0 1 .72.72v33.48a.718.718 0 0 1-.72.715h-2.648z"/>
            <path d="M176.588 113.793h-2.648c-.585 0-1.061.477-1.061 1.064v33.48c0 .584.476 1.059 1.061 1.059h2.648c.587 0 1.064-.475 1.064-1.059v-33.48c0-.587-.477-1.064-1.064-1.064m0 .688c.208 0 .377.168.377.376v33.48c0 .205-.17.371-.377.371h-2.648a.368.368 0 0 1-.374-.37v-33.481c0-.211.165-.376.374-.376h2.648M6.456 149.54c-4.056 0-6.112-2.313-6.112-6.873v-22.03c0-4.556 1.773-6.5 5.929-6.5h17.754l.005 2.287c0 .716-.401 1.127-1.1 1.127H6.622c-2.254 0-2.5.552-2.5 2.727v9.796l16.288.035.006 2.34c0 .71-.384 1.117-1.053 1.117H4.118l.004 9.506c0 2.258.828 3.097 3.054 3.097h15.746c.716 0 1.11.382 1.11 1.077v2.293H6.456z"/>
            <path d="M24.37 113.793H6.273c-2.207 0-3.774.544-4.79 1.664C.471 116.572 0 118.218 0 120.637v22.03c0 2.393.524 4.148 1.6 5.367 1.085 1.227 2.719 1.85 4.856 1.85H24.376v-2.638c0-.89-.544-1.421-1.454-1.421H7.176c-2.026 0-2.71-.695-2.71-2.753l-.004-9.162h14.9c.862 0 1.397-.56 1.397-1.46l-.004-2-.002-.684-.684-.002-15.603-.033v-9.453c0-1.116.098-1.686.339-1.968.244-.287.805-.415 1.818-.415h16.309c.89 0 1.444-.564 1.444-1.47l-.005-1.946-.001-.686zm-.686.688l.004 1.944c0 .526-.247.782-.756.782H6.622c-2.45 0-2.843.729-2.843 3.07v10.14l16.288.035.005 1.998c0 .52-.232.772-.71.772H3.775l.005 9.85c0 2.444.984 3.44 3.397 3.44h15.746c.53 0 .766.227.766.734v1.95H6.456c-3.882 0-5.768-2.136-5.768-6.528v-22.031c0-4.373 1.618-6.156 5.585-6.156h17.41zM39.776 127.303l-.01-12.193.011-.1v-.183l.01-.044c.138-.518.495-.78 1.063-.78h3.648l12.837 21.595 12.826-21.591 3.638-.004c.757 0 .979.466 1.044.744l.004.019.039.328v34.428h-3.824l-.06-30.108-12.117 20.18-3.116.003-12.17-20.141.007 30.06-3.825.006-.005-22.219z"/>
            <path d="M73.8 113.659h-.001l-3.443.004h-.39l-.2.336-12.43 20.926-12.442-20.93-.2-.336H40.85c-.722 0-1.218.368-1.395 1.035l-.023.09v.09l.001.117-.007.06-.004.04v.04l.01 12.173.005 21.874v.688h.689l3.137-.006.687-.001v-.687l-.007-28.482 11.432 18.918.2.332h.389l2.726-.002h.39l.2-.333 11.38-18.954.058 28.528.001.687h4.512v-.688l-.001-34.064v-.04l-.005-.041-.034-.289-.005-.038-.008-.037c-.071-.303-.347-1.01-1.379-1.01m0 .688c.402 0 .634.156.709.478l.034.29.001 34.063h-3.138l-.062-31L58.69 139.25l-2.727.001-12.709-21.03.008 30.95-3.138.006-.004-21.875-.01-12.173.011-.102v-.157c.097-.369.327-.524.73-.524h3.452l13.033 21.924 13.02-21.92 3.443-.004M141.514 149.052l-.005-31.499-12.52.005-.005-2.295c0-.84.53-1.05.846-1.099l.203-.026 27.197-.001.035.007c.58.12.861.487.861 1.118v2.282l-.727.014H145.59l.004 31.494h-4.081z"/>
            <path d="M157.266 113.793H130.01l-.044.007-.171.022-.01.001-.008.002c-.342.053-1.137.301-1.137 1.437l.005 1.954.001.686h.687l11.833-.005.004 30.811v.688h4.769v-.688l-.004-30.806h11.471l.39-.008.674-.014v-2.618c0-1.06-.711-1.366-1.135-1.455l-.07-.014zm-.071.688c.42.087.587.32.587.78v1.945l-.39.008h-12.145l.005 31.494h-3.395l-.004-31.499-12.52.005-.005-1.952c0-.288.058-.68.556-.758l.171-.023h27.14zM282.942 149.052l-.005-31.499-12.522.005-.006-2.295c0-.84.53-1.05.846-1.099l.206-.026 27.194-.001.035.007c.573.12.864.497.864 1.118v2.282l-.73.014h-11.805l.004 31.494h-4.081z"/>
            <path d="M298.691 113.793H271.44l-.044.006-.175.023-.01.001-.01.002c-.341.053-1.135.3-1.135 1.437l.004 1.954.002.686h.686l11.836-.005.004 30.811v.688h4.769v-.688l-.004-30.806h11.468l.393-.008.674-.014v-2.618c0-1.058-.712-1.365-1.137-1.455l-.07-.014zm-.071.688c.417.087.59.327.59.78v1.945l-.393.008h-12.142l.004 31.494h-3.394l-.004-31.499-12.523.005-.005-1.952c0-.288.057-.68.556-.758l.174-.023h27.137z"/>
        </g>
        <path fill="#35BDCE" d="M96.302 9.104c0-.548-.383-.766-.855-.49L49.8 35.7c-.47.277-1.242.728-1.714 1L1.143 63.753c-.472.275-.472.716.003.985L48.083 91.23c.475.27 1.248.264 1.721-.013l45.64-26.751c.472-.28.858-.95.858-1.498V9.104z"/>
        <path fill="#EFEEEE" d="M48.585 26.78c.477.269.477.71.005.983L1.645 54.818c-.472.275-.858.047-.858-.496V.789c0-.545.386-.773.862-.504L48.585 26.78z"/>
        <path fill="#E185B7" d="M47.888 36.817L1.143 63.752c-.472.275-.472.716.003.984L48.083 91.23s.15.104.495.17c.158.029.366.029.366.029V36.204l-1.056.613z"/>
        <g>
            <path fill="#FFF" d="M154.357 25.038a.26.26 0 0 1 .26.26v4.562a.26.26 0 0 1-.26.26h-11.489v52.148a.26.26 0 0 1-.26.26h-4.572a.26.26 0 0 1-.26-.26V30.12h-4.65c-2.866 6.617-5.845 12.05-8.857 16.157l-.253.345a.26.26 0 0 1-.382.04l-3.993-2.866a.259.259 0 0 1-.065-.38l.268-.34c5.887-7.45 11.19-19.382 14.547-32.736a2.5 2.5 0 0 1 2.932-1.838l.267.054a2.52 2.52 0 0 1 1.636 1.142 2.51 2.51 0 0 1 .284 1.974c-1.301 4.756-2.756 9.247-4.33 13.366h19.177zm11.706 0h27.33a.26.26 0 0 1 .26.26v4.562a.26.26 0 0 1-.26.26h-11.48v46.525c0 3.265-.865 4.655-3.43 5.508l-.027.009c-.824.235-1.945.322-3.156.322-2.794 0-6.069-.465-7.299-.656l-.393-.062a.26.26 0 0 1-.216-.301l.79-4.472a.26.26 0 0 1 .292-.212l.373.052c4.16.58 6.337.494 6.73.471 1.12-.065 1.163-.178 1.163-1.043V30.12h-12.63c-2.793 6.646-5.644 11.912-8.71 16.088l-.307.417a.26.26 0 0 1-.366.054l-3.868-2.915a.26.26 0 0 1-.047-.368l.265-.336c5.817-7.368 10.81-18.97 14.061-32.667a2.52 2.52 0 0 1 2.961-1.867l.124.026c.703.15 1.294.579 1.655 1.205.337.583.402 1.288.236 1.941-1.26 4.964-2.589 9.34-4.051 13.34zM233.147 25.601h-.23a2.47 2.47 0 0 0-2.472 2.467V82.35c0 .143.116.26.26.26h4.654a.26.26 0 0 0 .26-.26v-54.28a2.47 2.47 0 0 0-2.472-2.468M252.802 47.418v-11a.26.26 0 0 1 .26-.26h19.068a.91.91 0 0 1 .91.909v10.35h-20.238zm20.239 4.68v11.161a.26.26 0 0 1-.26.26h-19.719a.26.26 0 0 1-.26-.26V52.098h20.239zm-.404-20.7h-24.506a.26.26 0 0 0-.26.26v36.28c0 .144.116.26.26.26h29.58a.26.26 0 0 0 .26-.26V36.723a5.329 5.329 0 0 0-5.334-5.324zM236.743 10.73a2.356 2.356 0 0 0-3.927 1.986c.056.556.331 1.068.73 1.462 3.545 3.518 6.624 7.187 8.042 9.585l.21.357a.26.26 0 0 0 .37.083l3.887-2.618a.26.26 0 0 0 .073-.355l-.206-.32c-1.74-2.711-5.344-6.707-9.179-10.18"/>
            <path fill="#FFF" d="M295.642 18.444c-.002-2.934-2.395-5.32-5.335-5.32H253.57c-1.312 0-2.46.985-2.547 2.292a2.465 2.465 0 0 0 2.46 2.628h35.56c.785 0 1.423.638 1.424 1.421l.041 56.923c0 .864-.043.977-1.162 1.043-.395.023-2.573.108-6.73-.471l-.374-.052a.26.26 0 0 0-.292.211l-.79 4.472a.26.26 0 0 0 .216.302l.393.061c1.23.192 4.505.656 7.299.656 1.211 0 2.332-.087 3.157-.322l.027-.009c2.564-.853 3.43-2.243 3.43-5.508l-.04-58.327z"/>
            <path fill="#FEFEFE" d="M154.233 25.407h-18.518c1.52-3.986 2.925-8.332 4.181-12.933a2.434 2.434 0 0 0-.274-1.91 2.434 2.434 0 0 0-1.58-1.105l-.257-.052a2.415 2.415 0 0 0-2.832 1.778c-3.242 12.922-8.362 24.468-14.046 31.677l-.259.328a.251.251 0 0 0 .063.368l3.855 2.774c.11.098.282.08.37-.04l.244-.333c2.908-3.974 5.785-9.232 8.552-15.634h4.49v50.46c0 .14.112.252.25.252h4.416a.251.251 0 0 0 .251-.251V30.325h11.094a.251.251 0 0 0 .252-.251v-4.416a.251.251 0 0 0-.252-.25"/>
            <path fill="#FEFEFE" d="M165.536 25.407c1.413-3.87 2.696-8.105 3.913-12.908.16-.632.097-1.314-.228-1.879a2.406 2.406 0 0 0-1.599-1.165l-.119-.026a2.433 2.433 0 0 0-2.86 1.807c-3.138 13.254-7.96 24.48-13.577 31.61l-.256.325a.251.251 0 0 0 .046.356l3.734 2.821a.252.252 0 0 0 .354-.052l.296-.404c2.96-4.041 5.714-9.136 8.41-15.567h12.196v44.648c0 .836-.041.946-1.122 1.01-.38.021-2.482.104-6.5-.457l-.36-.05a.251.251 0 0 0-.281.205l-.763 4.327c-.025.139.07.27.208.292l.38.06c1.188.185 4.35.634 7.048.634 1.17 0 2.252-.084 3.048-.312l.026-.008c2.476-.825 3.312-2.17 3.312-5.33v-45.02h11.085a.251.251 0 0 0 .25-.25v-4.416a.251.251 0 0 0-.25-.25h-26.39z"/>
        </g>
    </g>
</svg>
