<svg xmlns="http://www.w3.org/2000/svg" width="185" height="103" viewBox="0 0 185 103">
    <g fill="none" fill-rule="evenodd">
        <g fill="#221E1F">
            <path d="M57.64 59.925c0-.466.19-.861.564-1.175.364-.303.817-.457 1.347-.457h6.35c.53 0 .982.154 1.346.457.375.315.566.71.566 1.175v14.52c0 .468-.19.863-.566 1.173-.361.305-.814.459-1.346.459h-6.35c-.532 0-.985-.154-1.347-.46a1.468 1.468 0 0 1-.564-1.173v-14.52zm11.127-2.346c-.775-.648-1.74-.976-2.866-.976h-6.35c-1.127 0-2.091.328-2.867.976-.773.644-1.148 1.412-1.148 2.346v14.52c0 .932.375 1.7 1.148 2.348.775.647 1.74.974 2.867.974h6.35c1.142 0 2.08-.318 2.867-.974.774-.648 1.151-1.417 1.151-2.349v-14.52c0-.931-.377-1.699-1.152-2.345zM121.095 67.855h8.264c.529 0 .981.154 1.344.458.375.313.565.708.565 1.174v4.957c0 .469-.19.864-.566 1.174-.36.305-.813.459-1.343.459l-8.264.002v-8.224zm9.963-3.327c0 .467-.191.864-.567 1.178-.358.302-.81.455-1.345.455l-8.051.003v-7.87h8.051c.53 0 .983.154 1.347.459.374.313.565.707.565 1.172v4.603zm.537 2.678l-.392-.177.378-.21a3.694 3.694 0 0 0 1.161-.984c.283-.376.421-.804.421-1.307v-4.603c0-.931-.376-1.699-1.15-2.346-.776-.648-1.74-.976-2.867-.976l-10.156.002.003 21.162h10.366c1.142 0 2.078-.32 2.863-.976.775-.644 1.152-1.412 1.152-2.347v-4.957c0-.494-.156-.923-.478-1.314a3.662 3.662 0 0 0-1.301-.967zM145.26 59.925c0-.467.19-.862.565-1.175.362-.303.815-.457 1.348-.457h6.348c.53 0 .983.154 1.345.457.375.313.565.709.565 1.175v14.52c0 .47-.19.864-.565 1.173-.36.305-.812.459-1.345.459h-6.348c-.535 0-.988-.154-1.349-.46a1.464 1.464 0 0 1-.563-1.173v-14.52zm11.128-2.346c-.774-.648-1.739-.976-2.867-.976h-6.348c-1.128 0-2.093.328-2.869.976-.772.644-1.148 1.412-1.148 2.346v14.52c0 .932.376 1.7 1.148 2.348.776.647 1.74.974 2.869.974h6.348c1.141 0 2.079-.318 2.867-.974.775-.648 1.152-1.417 1.152-2.349v-14.52c0-.931-.377-1.699-1.152-2.345zM108.978 56.603h-1.64a.23.23 0 0 0-.232.232v20.703c0 .129.102.23.232.23h1.64a.231.231 0 0 0 .233-.23V56.835a.233.233 0 0 0-.233-.232M3.677 58.289H13.78c.316 0 .469-.158.469-.484l-.003-1.202H3.46C1.003 56.603 0 57.706 0 60.41v13.622c0 2.716 1.169 4.037 3.574 4.037H14.25v-1.206c0-.313-.147-.453-.475-.453H4.02c-1.495 0-2.105-.617-2.105-2.128l-.003-6.09h9.658c.296 0 .44-.156.44-.478l-.004-1.235-10.091-.022v-6.27c0-1.448.243-1.898 1.762-1.898M45.735 56.816c-.047-.2-.19-.296-.44-.296l-2.132.002-8.067 13.555L27.02 56.52h-2.138c-.25 0-.392.096-.453.324v.097l-.007.063.007 7.528.003 13.526 1.944-.004-.005-19.138 7.874 13.004h1.689l7.839-13.031.039 19.169h1.944l-.001-21.063-.021-.18zM96.963 56.603H80.149l-.106.014c-.31.049-.345.291-.345.469l.003 1.207 7.757-.003.003 19.477h2.102l-.002-19.474h7.524l.242-.005v-1.202c0-.285-.104-.43-.364-.483M184.582 55.986H167.77l-.109.014c-.308.049-.344.291-.344.47l.003 1.207 7.759-.004.002 19.477h2.103l-.003-19.473h7.523l.243-.005v-1.203c0-.28-.107-.429-.365-.483"/>
        </g>
        <g fill="#221E1F">
            <path d="M8.281 89.84a.06.06 0 0 1 .06.059v1.04a.06.06 0 0 1-.06.059H5.664v11.88a.06.06 0 0 1-.059.059H4.564a.06.06 0 0 1-.06-.06v-11.88H3.445c-.652 1.508-1.331 2.746-2.017 3.681l-.058.079a.06.06 0 0 1-.087.01l-.91-.654a.059.059 0 0 1-.014-.086l.061-.078c1.34-1.697 2.549-4.415 3.313-7.457a.57.57 0 0 1 .668-.42l.061.013a.574.574 0 0 1 .437.71 32.832 32.832 0 0 1-.986 3.045h4.368zm2.667 0h6.225a.06.06 0 0 1 .06.059v1.04a.06.06 0 0 1-.06.059h-2.615v10.599c0 .744-.197 1.06-.781 1.255l-.006.001a2.794 2.794 0 0 1-.72.074c-.636 0-1.382-.106-1.662-.15l-.09-.014a.06.06 0 0 1-.049-.068l.18-1.019a.06.06 0 0 1 .067-.048l.085.012c.948.132 1.443.112 1.533.107.255-.015.265-.04.265-.238V90.998h-2.877c-.636 1.514-1.286 2.713-1.984 3.665l-.07.095a.06.06 0 0 1-.083.012l-.881-.664a.06.06 0 0 1-.011-.084l.06-.076c1.325-1.68 2.463-4.322 3.203-7.443a.574.574 0 0 1 .675-.425l.028.006c.16.034.295.132.377.275a.595.595 0 0 1 .053.442 31.113 31.113 0 0 1-.922 3.039zM142.664 88.46c1.09.727 2.15 1.622 2.637 2.226l.064.08a.06.06 0 0 0 .09.003l.711-.755a.059.059 0 0 0 .003-.078l-.05-.06c-.576-.694-1.734-1.626-2.882-2.319a.534.534 0 0 0-.573.903M141.933 93.186c1.136.702 2.371 1.666 3.007 2.35l.066.07a.06.06 0 0 0 .088 0l.671-.737a.06.06 0 0 0 0-.08l-.056-.06c-.644-.692-1.985-1.694-3.261-2.436a.516.516 0 0 0-.759.575.538.538 0 0 0 .244.318"/>
            <path d="M150.549 97.008a.573.573 0 0 0-.652-.443l-1.76.274V86.57a.563.563 0 0 0-.563-.562h-.034a.563.563 0 0 0-.563.562v10.445l-6.395.984a.06.06 0 0 0-.05.07l.178 1a.06.06 0 0 0 .068.047l6.2-.958v4.684c0 .033.026.06.058.06h1.042a.06.06 0 0 0 .06-.06v-4.86l1.934-.314a.583.583 0 0 0 .373-.216.554.554 0 0 0 .104-.443"/>
            <path d="M141.188 96.61a16.665 16.665 0 0 0-1.23-2.073c-.421-.598-.84-1.12-1.241-1.551l-.153-.169c-.12-.132-.28-.31-.441-.484v-.015h2.844a.06.06 0 0 0 .059-.059v-1.021a.06.06 0 0 0-.06-.06h-2.843v-3.127c.639-.154 1.227-.322 1.752-.503a.587.587 0 0 0 .37-.352.557.557 0 0 0-.065-.5l-.016-.025a.568.568 0 0 0-.684-.205c-1.103.452-2.98.91-5.426 1.328l-.187.033a.059.059 0 0 0-.044.081l.388.91a.06.06 0 0 0 .064.035l.118-.02c.813-.136 1.699-.327 2.556-.511l.014-.003v2.86h-2.708a.563.563 0 0 0-.563.562v.015c0 .31.252.562.563.562h2.52l.001.003c-1.248 3.33-2.634 5.223-3.343 6.05l-.057.067a.06.06 0 0 0 .006.083l.755.646a.06.06 0 0 0 .084-.007l.058-.067a16.656 16.656 0 0 0 1.443-1.931c.39-.619.713-1.205.956-1.741l.096-.204c.055-.114.12-.253.189-.4v8.006c0 .032.026.059.059.059h1.041a.06.06 0 0 0 .06-.06v-8.82a14.812 14.812 0 0 1 2.048 3.062l.064.126a.06.06 0 0 0 .08.025l.887-.446a.06.06 0 0 0 .026-.08l-.04-.08zM174.2 95.201l-.294-.937a.06.06 0 0 0-.073-.038l-2.004.606V90.98h2.108a.06.06 0 0 0 .06-.059V89.9a.06.06 0 0 0-.06-.06h-2.108v-3.236a.16.16 0 0 0 0-.012v-.022a.563.563 0 0 0-.564-.562h-.034a.566.566 0 0 0-.504.314.561.561 0 0 0-.077.282v3.237h-1.936a.563.563 0 0 0-.563.562v.015c0 .31.252.562.563.562h1.936v4.205c-.792.239-1.546.458-2.187.635a.557.557 0 0 0-.356.295.583.583 0 0 0-.02.445l.016.047a.563.563 0 0 0 .7.356l.592-.185c.405-.127.822-.259 1.255-.387v5.13c0 .197-.01.222-.264.237-.09.006-.586.025-1.533-.107l-.085-.012a.06.06 0 0 0-.067.048l-.18 1.02a.06.06 0 0 0 .05.068l.089.014c.28.043 1.026.15 1.662.15.276 0 .532-.02.72-.074l.006-.002c.558-.186.762-.489.78-1.156v-.064V96.017c.79-.262 2.054-.655 2.334-.743a.059.059 0 0 0 .039-.074"/>
            <path d="M179.128 98.586c-1.23-1.254-2.184-2.757-2.842-4.47h6c-.672 1.666-1.733 3.169-3.158 4.47zm5.34 3.208a12.52 12.52 0 0 1-4.515-2.419c1.7-1.548 3.15-3.759 3.715-5.676a.56.56 0 0 0-.093-.502.585.585 0 0 0-.467-.221h-3.397v-2.785h4.517a.06.06 0 0 0 .059-.06v-1.02a.06.06 0 0 0-.06-.06h-4.516V86.57a.563.563 0 0 0-.563-.562h-.052a.563.563 0 0 0-.563.562v2.482h-3.62a.563.563 0 0 0-.563.562v.016c0 .31.252.562.563.562h3.62v2.785h-3.59a.563.563 0 0 0-.563.562v.015c0 .31.252.562.563.562h.143c.751 2.049 1.805 3.794 3.136 5.192a14.66 14.66 0 0 1-4.9 2.458l-.092.026a.06.06 0 0 0-.04.077l.37 1.02a.06.06 0 0 0 .074.036l.081-.025c1.997-.626 3.8-1.56 5.363-2.777 1.414 1.275 3.097 2.213 5.004 2.787l.08.024a.06.06 0 0 0 .074-.036l.361-1a.059.059 0 0 0-.038-.076l-.09-.027zM77.53 88.705h3.77c.147 0 .267.12.267.266v3.762a.06.06 0 0 1-.06.06h-3.769a.266.266 0 0 1-.266-.267v-3.762a.06.06 0 0 1 .059-.059m4-1.103h-5.142a.06.06 0 0 0-.06.06v5.02c0 .67.545 1.213 1.216 1.213h5.141a.06.06 0 0 0 .06-.059v-5.02c0-.67-.545-1.214-1.216-1.214M71.187 98.148v-1.81a.06.06 0 0 1 .06-.058h8.532c.115 0 .208.092.208.207v1.66h-8.8zm8.8 1.03v2.532a.06.06 0 0 1-.06.06h-8.68a.06.06 0 0 1-.06-.06v-2.533h8.8zm-.019-3.965h-9.882a.06.06 0 0 0-.059.06v7.586c0 .033.027.06.06.06h11.037a.06.06 0 0 0 .06-.06v-6.433c0-.67-.545-1.213-1.216-1.213zM110.63 94.227h3.036c1.573 0 1.79-.887 1.912-2.912l.005-.087a.06.06 0 0 0-.055-.063l-1.014-.078a.06.06 0 0 0-.064.056l-.004.092c-.077 1.699-.227 1.871-.835 1.871h-2.962c-.914 0-.954-.119-.954-.53v-2.17a16.224 16.224 0 0 0 2.029-.571c.69-.248 1.304-.513 1.827-.786.303-.155.552-.288.761-.408a.575.575 0 0 0 .223-.809.534.534 0 0 0-.723-.186c-.2.117-.46.257-.773.417-.481.252-1.05.496-1.692.727-.496.178-1.051.34-1.652.478V86.59a.563.563 0 0 0-.564-.562h-.033a.563.563 0 0 0-.564.562v6.005c0 1.252.49 1.633 2.096 1.633M114.632 99.78a.06.06 0 0 0-.064.056l-.004.092c-.076 1.699-.227 1.871-.835 1.871h-3.08c-.914 0-.954-.119-.954-.53v-2.643a16.335 16.335 0 0 0 2.118-.475 14.73 14.73 0 0 0 1.865-.689c.323-.144.586-.268.806-.38a.567.567 0 0 0 .278-.68l-.012-.034a.514.514 0 0 0-.294-.321.519.519 0 0 0-.437.025c-.207.107-.476.234-.8.379-.494.226-1.076.44-1.728.637-.538.163-1.142.302-1.796.413v-2.219a.563.563 0 0 0-.564-.562h-.033a.563.563 0 0 0-.564.562v6.005c0 1.252.49 1.633 2.096 1.633h3.154c1.573 0 1.791-.887 1.912-2.912l.006-.087a.06.06 0 0 0-.055-.063l-1.015-.078zM105.759 98.003h-4.26v-1.74h4.26v1.74zm-4.26-2.788v-1.589a.06.06 0 0 1 .06-.059h4.14a.06.06 0 0 1 .059.06v1.588h-4.259zm-1.082 7.705h1.023a.06.06 0 0 0 .06-.059v-3.81h4.259v2.452c0 .214-.03.224-.264.238-.09.005-.586.024-1.533-.108l-.085-.011a.06.06 0 0 0-.067.048l-.18 1.019a.059.059 0 0 0 .05.068l.09.014c.28.044 1.025.15 1.662.15.276 0 .531-.02.719-.074l.006-.002c.559-.186.763-.488.78-1.156l.001-9.147a.06.06 0 0 0-.06-.06h-6.461a.06.06 0 0 0-.06.06v10.32c0 .032.027.058.06.058zM105.226 88.815l.567 1.268a.06.06 0 0 1-.054.083h-4.194a.06.06 0 0 1-.054-.084l1.47-3.265a.548.548 0 0 0-.252-.717.536.536 0 0 0-.208-.052.53.53 0 0 0-.543.312l-2.152 4.788a.06.06 0 0 0 .054.083h7.523a.06.06 0 0 0 .054-.083l-1.236-2.767-.975.434zM75.722 90.445h-3.368c.015-.23.028-.448.028-.677v-1.081h2.844a.06.06 0 0 0 .059-.06v-.947a.06.06 0 0 0-.06-.06H70.09c.108-.254.216-.523.316-.789a.564.564 0 0 0-.405-.759.564.564 0 0 0-.652.36c-.35.97-.82 1.87-1.359 2.602a.058.058 0 0 0 .008.077c.25.225.5.453.75.686a.06.06 0 0 0 .089-.008c.266-.362.505-.73.71-1.102h1.694v1.08c0 .218 0 .442-.022.678h-3.415a.546.546 0 0 0-.55.517.529.529 0 0 0 .165.402.558.558 0 0 0 .386.147h3.2c-.388 1.175-1.28 2.121-2.722 2.889l-.087.046a.06.06 0 0 0-.02.085l.571.808a.06.06 0 0 0 .074.02l.107-.053c1.327-.735 2.253-1.618 2.833-2.704.248-.506.342-.798.396-.995.936.878 2.506 2.883 2.506 2.883a.06.06 0 0 0 .085.02l.886-.598a.059.059 0 0 0 .017-.08s-1.217-1.544-2.014-2.32h2.086a.06.06 0 0 0 .06-.06v-.948a.06.06 0 0 0-.06-.059M35.339 89.968h-.052a.563.563 0 0 0-.563.562v12.366c0 .033.026.06.059.06h1.06a.06.06 0 0 0 .06-.06V90.53a.563.563 0 0 0-.564-.562M39.816 94.938v-2.506a.06.06 0 0 1 .06-.059h4.342c.115 0 .208.093.208.207v2.358h-4.61zm4.61 1.066v2.543a.06.06 0 0 1-.06.06h-4.49a.06.06 0 0 1-.06-.06v-2.543h4.61zm-.092-4.715h-5.582a.06.06 0 0 0-.06.059v8.265c0 .033.027.06.06.06h6.738a.06.06 0 0 0 .06-.06v-7.111c0-.67-.545-1.213-1.216-1.213zM36.158 86.58a.537.537 0 0 0-.894.453.552.552 0 0 0 .166.333c.807.801 1.509 1.637 1.832 2.183l.048.082a.06.06 0 0 0 .084.019l.885-.597a.059.059 0 0 0 .017-.08l-.047-.074c-.396-.617-1.217-1.527-2.09-2.319"/>
            <path d="M49.574 88.338c0-.669-.545-1.212-1.215-1.212H39.99a.574.574 0 0 0-.58.522.562.562 0 0 0 .56.599h8.1c.179 0 .324.145.324.323l.01 12.968c0 .197-.01.223-.265.238-.09.005-.586.024-1.533-.108l-.085-.011a.06.06 0 0 0-.067.048l-.18 1.018a.06.06 0 0 0 .05.07l.09.013c.28.044 1.025.15 1.662.15.275 0 .53-.02.719-.074l.006-.002c.584-.194.781-.51.781-1.255l-.009-13.287z"/>
        </g>
        <path fill="#35BDCE" d="M115.982 4.436c0-.268-.188-.376-.42-.24L93.15 17.47c-.23.136-.61.357-.841.49l-23.05 13.257c-.231.135-.231.352.002.483l23.046 12.983c.234.133.613.13.845-.006l22.41-13.11a.947.947 0 0 0 .421-.734V4.436z"/>
        <path fill="#F0EFEF" d="M92.553 13.099c.234.13.234.347.002.48l-23.05 13.26c-.231.134-.421.022-.421-.244V.361c0-.267.19-.378.423-.247L92.553 13.1z"/>
        <path fill="#E185B7" d="M92.21 18.017l-22.951 13.2c-.232.134-.232.35.001.482l23.046 12.983s.074.051.244.083c.077.014.18.014.18.014V17.716l-.52.3z"/>
    </g>
</svg>
