<svg xmlns="http://www.w3.org/2000/svg" width="300" height="167" viewBox="0 0 300 167">
    <g fill="none" fill-rule="evenodd">
        <path fill="#35BDCE" d="M188.079 7.197c0-.436-.305-.61-.68-.389L151.052 28.34c-.373.22-.989.579-1.365.795l-37.377 21.507c-.376.219-.376.57.003.783l37.372 21.063c.378.215.994.21 1.37-.01l36.34-21.268c.375-.222.683-.756.683-1.19V7.196z"/>
        <path fill="#F0EFEF" d="M150.086 21.25c.38.213.38.564.003.78l-37.377 21.51c-.376.218-.684.037-.684-.394V.586c0-.433.308-.614.686-.4l37.372 21.064z"/>
        <path fill="#E185B7" d="M149.53 29.229l-37.219 21.413c-.376.219-.376.57.003.783l37.372 21.063s.12.082.394.134c.126.024.292.024.292.024V28.74l-.842.488z"/>
        <g fill="#221E1F">
            <path d="M93.47 97.216c0-.756.309-1.397.915-1.905.59-.492 1.325-.742 2.183-.742h10.298c.859 0 1.594.25 2.183.742.609.51.918 1.15.918 1.905v23.554c0 .76-.31 1.402-.918 1.905-.586.494-1.32.744-2.183.744H96.568c-.862 0-1.596-.25-2.183-.745-.606-.502-.914-1.143-.914-1.904V97.216zm18.045-3.806c-1.258-1.05-2.822-1.584-4.649-1.584H96.568c-1.826 0-3.39.533-4.648 1.584-1.253 1.045-1.862 2.29-1.862 3.806v23.554c0 1.514.609 2.76 1.862 3.811 1.257 1.05 2.821 1.58 4.648 1.58h10.298c1.852 0 3.373-.517 4.65-1.58 1.256-1.052 1.866-2.299 1.866-3.81V97.215c0-1.512-.61-2.757-1.867-3.806zM196.37 110.08h13.401c.858 0 1.591.25 2.18.744.608.508.917 1.149.917 1.905v8.041c0 .76-.309 1.402-.918 1.905-.586.494-1.319.744-2.179.744l-13.4.003V110.08zm16.156-5.396c0 .758-.31 1.4-.92 1.91-.58.49-1.313.738-2.18.738l-13.056.006V94.569h13.056c.86 0 1.595.25 2.184.745.607.508.916 1.148.916 1.902v7.468zm.87 4.344l-.634-.287.612-.34c.774-.433 1.408-.97 1.883-1.597.46-.61.683-1.304.683-2.12v-7.468c0-1.51-.61-2.755-1.865-3.806-1.258-1.05-2.822-1.584-4.649-1.584l-16.47.004.005 34.331h16.81c1.851 0 3.37-.518 4.643-1.584 1.257-1.044 1.868-2.29 1.868-3.807v-8.041c0-.802-.253-1.499-.774-2.133-.545-.649-1.255-1.177-2.111-1.568zM235.558 97.216c0-.757.308-1.398.914-1.905.588-.492 1.323-.742 2.186-.742h10.296c.86 0 1.593.25 2.18.742.608.507.916 1.149.916 1.905v23.554c0 .763-.307 1.404-.916 1.905-.584.494-1.317.744-2.18.744h-10.296c-.866 0-1.602-.25-2.187-.745-.605-.5-.913-1.14-.913-1.904V97.216zm18.044-3.806c-1.255-1.05-2.82-1.584-4.648-1.584h-10.296c-1.828 0-3.393.533-4.65 1.584-1.254 1.045-1.863 2.29-1.863 3.806v23.554c0 1.514.609 2.76 1.862 3.811 1.258 1.05 2.822 1.58 4.651 1.58h10.296c1.85 0 3.37-.517 4.648-1.58 1.257-1.052 1.868-2.299 1.868-3.81V97.215c0-1.512-.611-2.757-1.868-3.806zM176.72 91.826h-2.66a.373.373 0 0 0-.375.378v33.586a.37.37 0 0 0 .376.371h2.66a.375.375 0 0 0 .378-.371V92.204a.378.378 0 0 0-.378-.378M5.963 94.561h16.385c.512 0 .76-.256.76-.784l-.005-1.95H5.611C1.626 91.826 0 93.615 0 98.001v22.1c0 4.406 1.895 6.548 5.795 6.548h17.313v-1.955c0-.509-.238-.736-.77-.736H6.518c-2.424 0-3.413-1-3.413-3.451l-.004-9.88h15.661c.48 0 .712-.254.712-.775l-.004-2.005-16.365-.035V97.642c0-2.35.395-3.08 2.858-3.08M74.164 92.172c-.075-.323-.308-.48-.711-.48l-3.459.004-13.082 21.99L43.82 91.692H40.35c-.404 0-.636.156-.734.526l.001.157-.011.103.01 12.211.005 21.944 3.152-.006-.008-31.048 12.768 21.097 2.74-.002 12.712-21.139.063 31.098H74.2l-.001-34.17-.035-.29zM157.237 91.826l-27.266.001-.172.023c-.5.079-.559.472-.559.76l.005 1.96 12.579-.006.004 31.597h3.41l-.004-31.592h12.201l.392-.008v-1.95c0-.463-.169-.697-.59-.785M299.322 91.826l-27.263.001-.176.023c-.5.079-.558.472-.558.76l.005 1.96 12.581-.006.005 31.597h3.41l-.005-31.592h12.199l.394-.008v-1.95c0-.456-.174-.697-.592-.785"/>
        </g>
        <g fill="#221E1F">
            <path d="M58.33 145.523h7.118v2.638a.096.096 0 0 1-.096.096h-7.02v-2.689l-.001-.045m7.117-4.129v2.49H58.3v-2.154c0-.238.194-.432.433-.432h6.619c.053 0 .096.043.096.096m1.755-1.765H58.39c-1.089 0-1.97.88-1.97 1.967v24.033c0 .053.042.096.095.096h1.72a.096.096 0 0 0 .097-.096v-15.702h8.871a.096.096 0 0 0 .096-.096v-10.106a.096.096 0 0 0-.096-.096M79.125 142.845l-.008.002v1.036H71.74v-2.488c0-.053.043-.096.096-.096h6.954c.186 0 .336.15.336.335v1.211zm-.006 5.412h-7.284a.096.096 0 0 1-.096-.096v-2.638h7.38v2.734zm1.917-6.66a1.97 1.97 0 0 0-1.97-1.968h-9.082a.096.096 0 0 0-.096.096v10.136c0 .053.043.096.096.096h9.136l.005 13.381c0 .32-.016.361-.43.386-.145.008-.95.04-2.485-.174l-.138-.02a.096.096 0 0 0-.108.079l-.292 1.652a.096.096 0 0 0 .08.112l.145.022c.455.071 1.664.243 2.696.243.448 0 .862-.032 1.166-.12l.01-.002c.947-.316 1.267-.83 1.267-2.036v-21.884z"/>
            <path d="M64.87 156.43v-2.626c0-.053.044-.096.097-.096h7.043c.186 0 .336.15.336.336v2.386h-7.475zm7.476 1.73v2.973a.096.096 0 0 1-.096.096h-7.283a.096.096 0 0 1-.096-.096v-2.973h7.475zm-.149-6.211h-9.052a.096.096 0 0 0-.096.096v10.817c0 .053.043.096.096.096h10.927a.096.096 0 0 0 .096-.096v-8.945a1.969 1.969 0 0 0-1.97-1.968zM13.644 145.717H6.56a53.326 53.326 0 0 0 1.6-4.94.928.928 0 0 0-.71-1.152l-.098-.02a.924.924 0 0 0-1.083.68c-1.24 4.935-3.199 9.345-5.373 12.098l-.1.126a.096.096 0 0 0 .025.14l1.474 1.06c.043.037.108.03.142-.015l.093-.128c1.113-1.518 2.213-3.526 3.272-5.971h1.717v19.273c0 .053.043.096.096.096h1.69a.096.096 0 0 0 .095-.096v-19.273h4.244a.096.096 0 0 0 .096-.096v-1.686a.096.096 0 0 0-.096-.096"/>
            <path d="M17.968 145.717a50.492 50.492 0 0 0 1.496-4.93.965.965 0 0 0-.087-.718.92.92 0 0 0-.611-.445l-.046-.01a.93.93 0 0 0-1.094.69c-1.2 5.062-3.045 9.35-5.194 12.073l-.098.124a.096.096 0 0 0 .018.136l1.428 1.078a.096.096 0 0 0 .136-.02l.113-.154c1.132-1.544 2.186-3.49 3.217-5.946h4.665v17.053c0 .32-.016.361-.429.385-.145.009-.95.04-2.486-.174l-.138-.019a.096.096 0 0 0-.108.078l-.292 1.653a.096.096 0 0 0 .08.111l.146.023c.454.07 1.664.243 2.695.243.448 0 .862-.033 1.166-.12l.01-.003c.948-.315 1.267-.829 1.267-2.035v-17.195h4.24a.096.096 0 0 0 .097-.096v-1.686a.096.096 0 0 0-.097-.096H17.968zM231.562 143.479c1.768 1.18 3.486 2.63 4.276 3.61l.104.129a.096.096 0 0 0 .145.005L237.24 146a.096.096 0 0 0 .004-.127l-.081-.098c-.934-1.125-2.812-2.636-4.673-3.76a.866.866 0 0 0-1.312.827c.025.26.165.492.383.638M230.377 151.145c1.842 1.139 3.844 2.704 4.876 3.812l.107.114c.038.041.104.041.142 0l1.088-1.196a.096.096 0 0 0 0-.13l-.09-.097c-1.044-1.122-3.22-2.748-5.29-3.953a.837.837 0 0 0-1.229.934.872.872 0 0 0 .396.516"/>
            <path d="M244.348 157.346c-.09-.474-.566-.796-1.058-.72l-2.853.446V140.41a.912.912 0 0 0-.913-.912h-.055a.912.912 0 0 0-.913.912v16.944l-10.371 1.598a.096.096 0 0 0-.08.112l.289 1.622c.009.052.058.086.11.078l10.052-1.555v7.6c0 .052.043.095.096.095h1.69a.096.096 0 0 0 .095-.096v-7.883l3.138-.511a.944.944 0 0 0 .605-.35.898.898 0 0 0 .168-.718"/>
            <path d="M229.168 156.7a27.017 27.017 0 0 0-1.993-3.364 23.862 23.862 0 0 0-2.015-2.516l-.247-.274c-.194-.214-.453-.502-.716-.784v-.025h4.612a.096.096 0 0 0 .096-.096v-1.656a.096.096 0 0 0-.096-.096h-4.612v-5.075a31.283 31.283 0 0 0 2.841-.815.954.954 0 0 0 .6-.571.905.905 0 0 0-.104-.813l-.027-.04a.92.92 0 0 0-1.108-.331c-1.789.732-4.832 1.477-8.8 2.153l-.303.054a.096.096 0 0 0-.07.132l.627 1.475c.018.041.061.065.105.057l.19-.032c1.32-.22 2.756-.53 4.146-.83l.022-.004v4.64h-4.39a.912.912 0 0 0-.914.911v.025c0 .504.41.912.913.912h4.086l.003.005c-2.024 5.401-4.271 8.472-5.42 9.814l-.094.11c-.035.04-.03.1.01.135l1.225 1.046c.04.035.1.03.135-.01l.094-.11a27.011 27.011 0 0 0 2.34-3.132 23.81 23.81 0 0 0 1.55-2.825l.157-.33.305-.648v12.987c0 .053.043.096.097.096h1.688a.096.096 0 0 0 .096-.096v-14.31a24.043 24.043 0 0 1 3.322 4.968l.104.203a.096.096 0 0 0 .13.042l1.437-.725a.096.096 0 0 0 .043-.129l-.065-.128zM282.702 154.415l-.477-1.52a.096.096 0 0 0-.12-.064c-.49.15-2.82.855-3.249.985v-6.25h3.42a.096.096 0 0 0 .096-.097v-1.656a.096.096 0 0 0-.097-.096h-3.419v-5.251V140.41a.912.912 0 0 0-.914-.912h-.055c-.345 0-.666.2-.819.51a.91.91 0 0 0-.124.458v5.25h-3.139a.912.912 0 0 0-.913.912v.025c0 .504.409.912.913.912h3.14v6.821c-1.285.388-2.507.743-3.547 1.03a.904.904 0 0 0-.577.48.947.947 0 0 0-.034.72l.027.078a.913.913 0 0 0 1.134.577c.312-.096.632-.197.96-.3.658-.207 1.334-.42 2.037-.628v8.322c0 .32-.016.36-.43.385-.145.009-.95.04-2.485-.174l-.138-.02a.096.096 0 0 0-.108.08l-.292 1.652a.096.096 0 0 0 .08.111l.145.023c.455.07 1.664.243 2.696.243.447 0 .862-.033 1.166-.12l.01-.003c.906-.301 1.237-.793 1.264-1.875l.001-.055.001-.05.001-.056v-9.067c1.281-.425 3.33-1.063 3.784-1.204a.095.095 0 0 0 .062-.12"/>
            <path d="M290.692 159.906c-1.993-2.036-3.542-4.473-4.609-7.253h9.73c-1.09 2.704-2.81 5.141-5.12 7.253zm8.661 5.204c-2.747-.823-5.21-2.143-7.322-3.925 2.756-2.51 5.107-6.097 6.023-9.208a.907.907 0 0 0-.15-.814.948.948 0 0 0-.757-.359h-5.508v-4.518h7.323a.096.096 0 0 0 .096-.096v-1.657a.096.096 0 0 0-.096-.096h-7.323v-4.027a.912.912 0 0 0-.913-.912h-.085a.912.912 0 0 0-.913.912v4.027h-5.87a.912.912 0 0 0-.914.912v.025c0 .504.41.912.914.912h5.87v4.518h-5.821a.912.912 0 0 0-.914.912v.025c0 .504.41.912.914.912h.231c1.218 3.323 2.928 6.154 5.085 8.423-2.294 1.776-5.036 3.153-7.946 3.987l-.148.042a.096.096 0 0 0-.064.125l.599 1.655c.017.048.07.074.119.059l.132-.042c3.238-1.015 6.163-2.53 8.697-4.505 2.293 2.07 5.022 3.59 8.114 4.522l.13.04c.05.014.102-.012.119-.06l.587-1.621a.096.096 0 0 0-.063-.125l-.146-.043zM125.94 143.876h6.113c.239 0 .432.193.432.432v6.103a.096.096 0 0 1-.096.096h-6.112a.432.432 0 0 1-.433-.432v-6.103c0-.053.043-.096.096-.096m6.486-1.79h-8.337a.096.096 0 0 0-.096.097v8.145c0 1.087.882 1.968 1.97 1.968h8.337a.096.096 0 0 0 .096-.096v-8.146a1.969 1.969 0 0 0-1.97-1.967M115.653 159.195v-2.935c0-.053.043-.096.096-.096h13.837c.186 0 .337.15.337.336v2.695h-14.27zm14.27 1.67v4.11a.096.096 0 0 1-.096.095h-14.078a.096.096 0 0 1-.096-.096v-4.11h14.27zm-.03-6.43h-16.025a.096.096 0 0 0-.096.095v12.308c0 .053.043.096.096.096h17.9a.096.096 0 0 0 .095-.096v-10.436a1.969 1.969 0 0 0-1.97-1.968zM179.615 152.834h4.923c2.55 0 2.903-1.44 3.1-4.725l.009-.141a.096.096 0 0 0-.089-.101l-1.646-.127a.096.096 0 0 0-.103.09l-.007.15c-.124 2.755-.367 3.035-1.354 3.035h-4.803c-1.482 0-1.547-.192-1.547-.86v-3.52a26.297 26.297 0 0 0 3.29-.927 23.888 23.888 0 0 0 2.963-1.275c.491-.25.896-.467 1.235-.662a.974.974 0 0 0 .456-.558.933.933 0 0 0-.095-.753.865.865 0 0 0-1.172-.302c-.325.19-.746.416-1.253.676-.781.408-1.705.805-2.745 1.18-.805.289-1.705.55-2.68.776v-4.347a.912.912 0 0 0-.913-.912h-.054a.912.912 0 0 0-.914.912v9.741c0 2.031.795 2.65 3.4 2.65M186.105 161.842a.096.096 0 0 0-.104.092l-.007.148c-.124 2.756-.367 3.036-1.353 3.036h-4.996c-1.481 0-1.547-.193-1.547-.86v-4.287a26.478 26.478 0 0 0 3.435-.77 23.885 23.885 0 0 0 3.025-1.119c.523-.233.95-.435 1.306-.616a.919.919 0 0 0 .45-1.103l-.018-.056a.833.833 0 0 0-.476-.521.84.84 0 0 0-.71.042c-.336.173-.771.379-1.297.613-.801.368-1.744.716-2.803 1.035a24.19 24.19 0 0 1-2.912.669v-3.6a.912.912 0 0 0-.914-.911h-.054a.912.912 0 0 0-.914.911v9.742c0 2.03.795 2.65 3.4 2.65h5.114c2.55 0 2.904-1.44 3.1-4.725l.009-.141a.096.096 0 0 0-.089-.102l-1.645-.127zM171.715 158.96h-6.907v-2.823h6.907v2.822zm-6.907-4.523v-2.578c0-.053.043-.096.096-.096h6.713c.053 0 .096.043.096.096l.001 2.578h-6.906zm-1.756 12.5h1.66a.096.096 0 0 0 .096-.096v-6.182h6.908l.001 3.979c0 .347-.049.363-.43.385-.145.009-.949.04-2.485-.174l-.138-.019a.096.096 0 0 0-.108.078l-.292 1.653a.096.096 0 0 0 .08.111l.145.023c.455.07 1.664.243 2.696.243.447 0 .862-.033 1.166-.12l.01-.003c.906-.301 1.237-.792 1.264-1.876l.003-14.84a.096.096 0 0 0-.096-.095h-10.48a.096.096 0 0 0-.096.096v16.741c0 .053.043.096.096.096zM170.852 144.053l.919 2.057a.096.096 0 0 1-.088.136h-6.8a.096.096 0 0 1-.088-.136l2.382-5.298c.196-.438.013-.96-.407-1.162a.87.87 0 0 0-.338-.085.86.86 0 0 0-.88.506l-3.49 7.767a.096.096 0 0 0 .088.135h12.2c.07 0 .116-.071.087-.135l-2.005-4.487-1.58.702zM123.007 146.699h-5.46c.023-.372.043-.728.043-1.1v-1.753h4.612a.096.096 0 0 0 .096-.096v-1.537a.096.096 0 0 0-.096-.096h-8.33c.176-.414.35-.85.513-1.281a.914.914 0 0 0-.657-1.231.915.915 0 0 0-1.057.584c-.566 1.573-1.331 3.031-2.204 4.22a.094.094 0 0 0 .013.126c.406.364.81.735 1.216 1.112.042.039.11.033.144-.013.432-.587.819-1.185 1.153-1.788h2.746v1.754c0 .352 0 .715-.035 1.099h-5.539c-.478 0-.878.376-.892.838a.858.858 0 0 0 .268.652c.167.16.395.239.626.239h5.19c-.63 1.905-2.078 3.44-4.414 4.686l-.141.075a.096.096 0 0 0-.035.138l.928 1.31a.096.096 0 0 0 .12.032c.06-.029.142-.068.173-.085 2.152-1.192 3.653-2.625 4.594-4.386.403-.821.555-1.294.642-1.614 1.519 1.424 4.065 4.676 4.065 4.676.028.048.09.063.137.032l1.437-.968a.096.096 0 0 0 .027-.131s-1.974-2.505-3.266-3.765h3.383a.096.096 0 0 0 .096-.096v-1.538a.096.096 0 0 0-.096-.095"/>
        </g>
    </g>
</svg>
